  0
SECTION
  2
HEADER
  9
$ACADVER
  1
AC1009
  9
$INSBASE
 10
0.0
 20
0.0
 30
0.0
  9
$EXTMIN
 10
0.0
 20
0.0
 30
0.0
  9
$EXTMAX
 10
0.0
 20
0.0
 30
0.0
  0
ENDSEC
  0
SECTION
  2
TABLES
  0
TABLE
  2
VPORT
 70
1
  0
VPORT
  2
*ACTIVE
 70
0
 10
0.0
 20
0.0
 11
1.0
 21
1.0
 12
-5.0
 22
1.0
 13
0.0
 23
0.0
 14
0.1
 24
0.1
 15
0.1
 25
0.1
 16
0.0
 26
0.0
 36
1.0
 17
0.0
 27
0.0
 37
0.0
 40
10.0
 41
1.0
 42
50.0
 43
0.0
 44
0.0
 50
0.0
 51
0.0
 71
0
 72
100
 73
1
 74
1
 75
0
 76
0
 77
0
 78
0
  0
ENDTAB
  0
TABLE
  2
LTYPE
 70
8
  0
LTYPE
  2
CONTINUOUS
 70
0
  3
Solid line
 72
65
 73
0
 40
0.0
  0
LTYPE
  2
DOT
 70
0
  3
. . . . . . .
 72
65
 73
2
 40
0.25
 49
0.0
 49
-0.25
  0
LTYPE
  2
DASHED
 70
0
  3
__ __ __ __ __
 72
65
 73
2
 40
0.8
 49
0.5
 49
-0.3
  0
LTYPE
  2
DASHDOT
 70
0
  3
__ . __ . __ .
 72
65
 73
4
 40
1.0
 49
0.5
 49
-0.25
 49
0.0
 49
-0.25
  0
LTYPE
  2
DIVIDE
 70
0
  3
____ . . ____ . . 
 72
65
 73
6
 40
1.25
 49
0.5
 49
-0.25
 49
0.0
 49
-0.25
 49
0.0
 49
-0.25
  0
LTYPE
  2
BORDER
 70
0
  3
__ __ . __ __ . 
 72
65
 73
6
 40
1.75
 49
0.5
 49
-0.25
 49
0.5
 49
-0.25
 49
0.0
 49
-0.25
  0
LTYPE
  2
HIDDEN
 70
0
  3
__ __ __ __ __
 72
65
 73
2
 40
0.4
 49
0.25
 49
-0.25
  0
LTYPE
  2
CENTER
 70
0
  3
____ _ ____ _ __
 72
65
 73
4
 40
2.0
 49
1.25
 49
-0.25
 49
0.25
 49
-0.25
  0
ENDTAB
  0
TABLE
  2
LAYER
 70
1
  0
LAYER
  2
PYDXF
 70
64
 62
7
  6
continuous
  0
ENDTAB
  0
TABLE
  2
STYLE
 70
1
  0
STYLE
  2
STANDARD
 70
0
 40
0
 41
1.0
 50
0.0
 71
0
 42
1
 3
ARIAL.TTF
 4

  0
ENDTAB
  0
TABLE
  2
VIEW
 70
1
  0
VIEW
  2
BF_TOPVIEW
 70
0
 40
120.0
 10
0.0
 20
0.0
 41
200.0
 11
0.0
 21
0.0
 31
1.0
 12
0.0
 22
0.0
 32
0.0
 42
50.0
 43
0.0
 44
0.0
 50
0.0
 71
0
  0
ENDTAB
  0
ENDSEC
  0
SECTION
  2
BLOCKS
  0
ENDSEC
  0
SECTION
  2
ENTITIES
  0
3DFACE
  8
0
 10
172.66700744628906
 20
440.0
 30
0.0
 11
172.66700744628906
 21
220.0
 31
131.713134765625
 12
172.66700744628906
 22
440.0
 32
131.713134765625
 13
172.66700744628906
 23
440.0
 33
131.713134765625
  0
3DFACE
  8
0
 10
172.66700744628906
 20
0.0
 30
0.0
 11
172.66700744628906
 21
220.0
 31
142.713134765625
 12
172.66700744628906
 22
220.0
 32
131.713134765625
 13
172.66700744628906
 23
220.0
 33
131.713134765625
  0
3DFACE
  8
0
 10
172.66700744628906
 20
220.0
 30
142.713134765625
 11
172.66700744628906
 21
0.0
 31
430.0
 12
175.32296752929688
 22
220.0
 32
259.1113586425781
 13
175.32296752929688
 23
220.0
 33
259.1113586425781
  0
3DFACE
  8
0
 10
172.66700744628906
 20
220.0
 30
142.713134765625
 11
172.66700744628906
 21
0.0
 31
0.0
 12
172.66700744628906
 22
0.0
 32
430.0
 13
172.66700744628906
 23
0.0
 33
430.0
  0
3DFACE
  8
0
 10
172.66700744628906
 20
0.0
 30
0.0
 11
172.66700744628906
 21
220.0
 31
131.713134765625
 12
172.66700744628906
 22
440.0
 32
0.0
 13
172.66700744628906
 23
440.0
 33
0.0
  0
3DFACE
  8
0
 10
172.66700744628906
 20
220.0
 30
142.713134765625
 11
175.32296752929688
 21
440.0
 31
259.1113586425781
 12
172.66700744628906
 22
440.0
 32
142.713134765625
 13
172.66700744628906
 23
440.0
 33
142.713134765625
  0
3DFACE
  8
0
 10
175.32296752929688
 20
440.0
 30
259.1113586425781
 11
172.66700744628906
 21
220.0
 31
142.713134765625
 12
175.32296752929688
 22
220.0
 32
259.1113586425781
 13
175.32296752929688
 23
220.0
 33
259.1113586425781
  0
3DFACE
  8
0
 10
175.32296752929688
 20
220.0
 30
270.1113586425781
 11
172.66700744628906
 21
440.0
 31
430.0
 12
175.32296752929688
 22
440.0
 32
270.1113586425781
 13
175.32296752929688
 23
440.0
 33
270.1113586425781
  0
3DFACE
  8
0
 10
175.32296752929688
 20
220.0
 30
270.1113586425781
 11
172.66700744628906
 21
0.0
 31
430.0
 12
172.66700744628906
 22
440.0
 32
430.0
 13
172.66700744628906
 23
440.0
 33
430.0
  0
3DFACE
  8
0
 10
175.32296752929688
 20
220.0
 30
259.1113586425781
 11
172.66700744628906
 21
0.0
 31
430.0
 12
175.32296752929688
 22
220.0
 32
270.1113586425781
 13
175.32296752929688
 23
220.0
 33
270.1113586425781
  0
3DFACE
  8
0
 10
172.66700744628906
 20
440.0
 30
430.0
 11
183.66700744628906
 21
0.0
 31
430.0
 12
183.66700744628906
 22
440.0
 32
430.0
 13
183.66700744628906
 23
440.0
 33
430.0
  0
3DFACE
  8
0
 10
183.66700744628906
 20
0.0
 30
430.0
 11
172.66700744628906
 21
440.0
 31
430.0
 12
172.66700744628906
 22
0.0
 32
430.0
 13
172.66700744628906
 23
0.0
 33
430.0
  0
3DFACE
  8
0
 10
183.66700744628906
 20
440.0
 30
430.0
 11
186.32296752929688
 21
220.0
 31
270.1113586425781
 12
186.32296752929688
 22
440.0
 32
270.1113586425781
 13
186.32296752929688
 23
440.0
 33
270.1113586425781
  0
3DFACE
  8
0
 10
183.66700744628906
 20
0.0
 30
430.0
 11
186.32296752929688
 21
220.0
 31
259.1113586425781
 12
186.32296752929688
 22
220.0
 32
270.1113586425781
 13
186.32296752929688
 23
220.0
 33
270.1113586425781
  0
3DFACE
  8
0
 10
186.32296752929688
 20
220.0
 30
259.1113586425781
 11
183.66700744628906
 21
0.0
 31
430.0
 12
183.66700744628906
 22
220.0
 32
142.713134765625
 13
183.66700744628906
 23
220.0
 33
142.713134765625
  0
3DFACE
  8
0
 10
183.66700744628906
 20
0.0
 30
0.0
 11
183.66700744628906
 21
220.0
 31
142.713134765625
 12
183.66700744628906
 22
0.0
 32
430.0
 13
183.66700744628906
 23
0.0
 33
430.0
  0
3DFACE
  8
0
 10
183.66700744628906
 20
0.0
 30
430.0
 11
186.32296752929688
 21
220.0
 31
270.1113586425781
 12
183.66700744628906
 22
440.0
 32
430.0
 13
183.66700744628906
 23
440.0
 33
430.0
  0
3DFACE
  8
0
 10
186.32296752929688
 20
220.0
 30
259.1113586425781
 11
183.66700744628906
 21
440.0
 31
142.713134765625
 12
186.32296752929688
 22
440.0
 32
259.1113586425781
 13
186.32296752929688
 23
440.0
 33
259.1113586425781
  0
3DFACE
  8
0
 10
183.66700744628906
 20
440.0
 30
142.713134765625
 11
186.32296752929688
 21
220.0
 31
259.1113586425781
 12
183.66700744628906
 22
220.0
 32
142.713134765625
 13
183.66700744628906
 23
220.0
 33
142.713134765625
  0
3DFACE
  8
0
 10
183.66700744628906
 20
220.0
 30
131.713134765625
 11
183.66700744628906
 21
440.0
 31
0.0
 12
183.66700744628906
 22
440.0
 32
131.713134765625
 13
183.66700744628906
 23
440.0
 33
131.713134765625
  0
3DFACE
  8
0
 10
183.66700744628906
 20
220.0
 30
131.713134765625
 11
183.66700744628906
 21
0.0
 31
0.0
 12
183.66700744628906
 22
440.0
 32
0.0
 13
183.66700744628906
 23
440.0
 33
0.0
  0
3DFACE
  8
0
 10
183.66700744628906
 20
220.0
 30
142.713134765625
 11
183.66700744628906
 21
0.0
 31
0.0
 12
183.66700744628906
 22
220.0
 32
131.713134765625
 13
183.66700744628906
 23
220.0
 33
131.713134765625
  0
3DFACE
  8
0
 10
183.66700744628906
 20
440.0
 30
0.0
 11
172.66700744628906
 21
440.0
 31
131.713134765625
 12
183.66700744628906
 22
440.0
 32
131.713134765625
 13
183.66700744628906
 23
440.0
 33
131.713134765625
  0
3DFACE
  8
0
 10
172.66700744628906
 20
440.0
 30
131.713134765625
 11
183.66700744628906
 21
440.0
 31
0.0
 12
172.66700744628906
 22
440.0
 32
0.0
 13
172.66700744628906
 23
440.0
 33
0.0
  0
3DFACE
  8
0
 10
186.32296752929688
 20
440.0
 30
270.1113586425781
 11
172.66700744628906
 21
440.0
 31
430.0
 12
183.66700744628906
 22
440.0
 32
430.0
 13
183.66700744628906
 23
440.0
 33
430.0
  0
3DFACE
  8
0
 10
172.66700744628906
 20
440.0
 30
430.0
 11
186.32296752929688
 21
440.0
 31
270.1113586425781
 12
175.32296752929688
 22
440.0
 32
270.1113586425781
 13
175.32296752929688
 23
440.0
 33
270.1113586425781
  0
3DFACE
  8
0
 10
183.66700744628906
 20
440.0
 30
142.713134765625
 11
175.32296752929688
 21
440.0
 31
259.1113586425781
 12
186.32296752929688
 22
440.0
 32
259.1113586425781
 13
186.32296752929688
 23
440.0
 33
259.1113586425781
  0
3DFACE
  8
0
 10
175.32296752929688
 20
440.0
 30
259.1113586425781
 11
183.66700744628906
 21
440.0
 31
142.713134765625
 12
172.66700744628906
 22
440.0
 32
142.713134765625
 13
172.66700744628906
 23
440.0
 33
142.713134765625
  0
3DFACE
  8
0
 10
379.5727233886719
 20
440.0
 30
0.0
 11
368.5727233886719
 21
440.0
 31
131.713134765625
 12
379.5727233886719
 22
440.0
 32
131.713134765625
 13
379.5727233886719
 23
440.0
 33
131.713134765625
  0
3DFACE
  8
0
 10
368.5727233886719
 20
440.0
 30
131.713134765625
 11
379.5727233886719
 21
440.0
 31
0.0
 12
368.5727233886719
 22
440.0
 32
0.0
 13
368.5727233886719
 23
440.0
 33
0.0
  0
3DFACE
  8
0
 10
382.22869873046875
 20
440.0
 30
270.1113586425781
 11
368.5727233886719
 21
440.0
 31
430.0
 12
379.5727233886719
 22
440.0
 32
430.0
 13
379.5727233886719
 23
440.0
 33
430.0
  0
3DFACE
  8
0
 10
368.5727233886719
 20
440.0
 30
430.0
 11
382.22869873046875
 21
440.0
 31
270.1113586425781
 12
371.22869873046875
 22
440.0
 32
270.1113586425781
 13
371.22869873046875
 23
440.0
 33
270.1113586425781
  0
3DFACE
  8
0
 10
379.5727233886719
 20
440.0
 30
142.713134765625
 11
371.22869873046875
 21
440.0
 31
259.1113586425781
 12
382.22869873046875
 22
440.0
 32
259.1113586425781
 13
382.22869873046875
 23
440.0
 33
259.1113586425781
  0
3DFACE
  8
0
 10
371.22869873046875
 20
440.0
 30
259.1113586425781
 11
379.5727233886719
 21
440.0
 31
142.713134765625
 12
368.5727233886719
 22
440.0
 32
142.713134765625
 13
368.5727233886719
 23
440.0
 33
142.713134765625
  0
3DFACE
  8
0
 10
172.66700744628906
 20
0.0
 30
0.0
 11
183.66700744628906
 21
440.0
 31
0.0
 12
183.66700744628906
 22
0.0
 32
0.0
 13
183.66700744628906
 23
0.0
 33
0.0
  0
3DFACE
  8
0
 10
183.66700744628906
 20
440.0
 30
0.0
 11
172.66700744628906
 21
0.0
 31
0.0
 12
172.66700744628906
 22
440.0
 32
0.0
 13
172.66700744628906
 23
440.0
 33
0.0
  0
3DFACE
  8
0
 10
172.66700744628906
 20
0.0
 30
0.0
 11
183.66700744628906
 21
0.0
 31
430.0
 12
172.66700744628906
 22
0.0
 32
430.0
 13
172.66700744628906
 23
0.0
 33
430.0
  0
3DFACE
  8
0
 10
183.66700744628906
 20
0.0
 30
430.0
 11
172.66700744628906
 21
0.0
 31
0.0
 12
183.66700744628906
 22
0.0
 32
0.0
 13
183.66700744628906
 23
0.0
 33
0.0
  0
3DFACE
  8
0
 10
368.5727233886719
 20
440.0
 30
0.0
 11
368.5727233886719
 21
220.0
 31
131.713134765625
 12
368.5727233886719
 22
440.0
 32
131.713134765625
 13
368.5727233886719
 23
440.0
 33
131.713134765625
  0
3DFACE
  8
0
 10
368.5727233886719
 20
0.0
 30
0.0
 11
368.5727233886719
 21
220.0
 31
142.713134765625
 12
368.5727233886719
 22
220.0
 32
131.713134765625
 13
368.5727233886719
 23
220.0
 33
131.713134765625
  0
3DFACE
  8
0
 10
368.5727233886719
 20
220.0
 30
142.713134765625
 11
368.5727233886719
 21
0.0
 31
430.0
 12
371.22869873046875
 22
220.0
 32
259.1113586425781
 13
371.22869873046875
 23
220.0
 33
259.1113586425781
  0
3DFACE
  8
0
 10
368.5727233886719
 20
220.0
 30
142.713134765625
 11
368.5727233886719
 21
0.0
 31
0.0
 12
368.5727233886719
 22
0.0
 32
430.0
 13
368.5727233886719
 23
0.0
 33
430.0
  0
3DFACE
  8
0
 10
368.5727233886719
 20
0.0
 30
0.0
 11
368.5727233886719
 21
220.0
 31
131.713134765625
 12
368.5727233886719
 22
440.0
 32
0.0
 13
368.5727233886719
 23
440.0
 33
0.0
  0
3DFACE
  8
0
 10
368.5727233886719
 20
220.0
 30
142.713134765625
 11
371.22869873046875
 21
440.0
 31
259.1113586425781
 12
368.5727233886719
 22
440.0
 32
142.713134765625
 13
368.5727233886719
 23
440.0
 33
142.713134765625
  0
3DFACE
  8
0
 10
371.22869873046875
 20
440.0
 30
259.1113586425781
 11
368.5727233886719
 21
220.0
 31
142.713134765625
 12
371.22869873046875
 22
220.0
 32
259.1113586425781
 13
371.22869873046875
 23
220.0
 33
259.1113586425781
  0
3DFACE
  8
0
 10
371.22869873046875
 20
220.0
 30
270.1113586425781
 11
368.5727233886719
 21
440.0
 31
430.0
 12
371.22869873046875
 22
440.0
 32
270.1113586425781
 13
371.22869873046875
 23
440.0
 33
270.1113586425781
  0
3DFACE
  8
0
 10
371.22869873046875
 20
220.0
 30
270.1113586425781
 11
368.5727233886719
 21
0.0
 31
430.0
 12
368.5727233886719
 22
440.0
 32
430.0
 13
368.5727233886719
 23
440.0
 33
430.0
  0
3DFACE
  8
0
 10
371.22869873046875
 20
220.0
 30
259.1113586425781
 11
368.5727233886719
 21
0.0
 31
430.0
 12
371.22869873046875
 22
220.0
 32
270.1113586425781
 13
371.22869873046875
 23
220.0
 33
270.1113586425781
  0
3DFACE
  8
0
 10
368.5727233886719
 20
440.0
 30
430.0
 11
379.5727233886719
 21
0.0
 31
430.0
 12
379.5727233886719
 22
440.0
 32
430.0
 13
379.5727233886719
 23
440.0
 33
430.0
  0
3DFACE
  8
0
 10
379.5727233886719
 20
0.0
 30
430.0
 11
368.5727233886719
 21
440.0
 31
430.0
 12
368.5727233886719
 22
0.0
 32
430.0
 13
368.5727233886719
 23
0.0
 33
430.0
  0
3DFACE
  8
0
 10
379.5727233886719
 20
440.0
 30
430.0
 11
382.22869873046875
 21
220.0
 31
270.1113586425781
 12
382.22869873046875
 22
440.0
 32
270.1113586425781
 13
382.22869873046875
 23
440.0
 33
270.1113586425781
  0
3DFACE
  8
0
 10
379.5727233886719
 20
0.0
 30
430.0
 11
382.22869873046875
 21
220.0
 31
259.1113586425781
 12
382.22869873046875
 22
220.0
 32
270.1113586425781
 13
382.22869873046875
 23
220.0
 33
270.1113586425781
  0
3DFACE
  8
0
 10
382.22869873046875
 20
220.0
 30
259.1113586425781
 11
379.5727233886719
 21
0.0
 31
430.0
 12
379.5727233886719
 22
220.0
 32
142.713134765625
 13
379.5727233886719
 23
220.0
 33
142.713134765625
  0
3DFACE
  8
0
 10
379.5727233886719
 20
0.0
 30
0.0
 11
379.5727233886719
 21
220.0
 31
142.713134765625
 12
379.5727233886719
 22
0.0
 32
430.0
 13
379.5727233886719
 23
0.0
 33
430.0
  0
3DFACE
  8
0
 10
379.5727233886719
 20
0.0
 30
430.0
 11
382.22869873046875
 21
220.0
 31
270.1113586425781
 12
379.5727233886719
 22
440.0
 32
430.0
 13
379.5727233886719
 23
440.0
 33
430.0
  0
3DFACE
  8
0
 10
382.22869873046875
 20
220.0
 30
259.1113586425781
 11
379.5727233886719
 21
440.0
 31
142.713134765625
 12
382.22869873046875
 22
440.0
 32
259.1113586425781
 13
382.22869873046875
 23
440.0
 33
259.1113586425781
  0
3DFACE
  8
0
 10
379.5727233886719
 20
440.0
 30
142.713134765625
 11
382.22869873046875
 21
220.0
 31
259.1113586425781
 12
379.5727233886719
 22
220.0
 32
142.713134765625
 13
379.5727233886719
 23
220.0
 33
142.713134765625
  0
3DFACE
  8
0
 10
379.5727233886719
 20
220.0
 30
131.713134765625
 11
379.5727233886719
 21
440.0
 31
0.0
 12
379.5727233886719
 22
440.0
 32
131.713134765625
 13
379.5727233886719
 23
440.0
 33
131.713134765625
  0
3DFACE
  8
0
 10
379.5727233886719
 20
220.0
 30
131.713134765625
 11
379.5727233886719
 21
0.0
 31
0.0
 12
379.5727233886719
 22
440.0
 32
0.0
 13
379.5727233886719
 23
440.0
 33
0.0
  0
3DFACE
  8
0
 10
379.5727233886719
 20
220.0
 30
142.713134765625
 11
379.5727233886719
 21
0.0
 31
0.0
 12
379.5727233886719
 22
220.0
 32
131.713134765625
 13
379.5727233886719
 23
220.0
 33
131.713134765625
  0
3DFACE
  8
0
 10
368.5727233886719
 20
0.0
 30
0.0
 11
379.5727233886719
 21
440.0
 31
0.0
 12
379.5727233886719
 22
0.0
 32
0.0
 13
379.5727233886719
 23
0.0
 33
0.0
  0
3DFACE
  8
0
 10
379.5727233886719
 20
440.0
 30
0.0
 11
368.5727233886719
 21
0.0
 31
0.0
 12
368.5727233886719
 22
440.0
 32
0.0
 13
368.5727233886719
 23
440.0
 33
0.0
  0
3DFACE
  8
0
 10
368.5727233886719
 20
0.0
 30
0.0
 11
379.5727233886719
 21
0.0
 31
430.0
 12
368.5727233886719
 22
0.0
 32
430.0
 13
368.5727233886719
 23
0.0
 33
430.0
  0
3DFACE
  8
0
 10
379.5727233886719
 20
0.0
 30
430.0
 11
368.5727233886719
 21
0.0
 31
0.0
 12
379.5727233886719
 22
0.0
 32
0.0
 13
379.5727233886719
 23
0.0
 33
0.0
  0
3DFACE
  8
0
 10
172.66700744628906
 20
440.0
 30
131.713134765625
 11
183.66700744628906
 21
220.0
 31
131.713134765625
 12
183.66700744628906
 22
440.0
 32
131.713134765625
 13
183.66700744628906
 23
440.0
 33
131.713134765625
  0
3DFACE
  8
0
 10
183.66700744628906
 20
220.0
 30
131.713134765625
 11
172.66700744628906
 21
440.0
 31
131.713134765625
 12
172.66700744628906
 22
220.0
 32
131.713134765625
 13
172.66700744628906
 23
220.0
 33
131.713134765625
  0
3DFACE
  8
0
 10
368.5727233886719
 20
440.0
 30
131.713134765625
 11
379.5727233886719
 21
220.0
 31
131.713134765625
 12
379.5727233886719
 22
440.0
 32
131.713134765625
 13
379.5727233886719
 23
440.0
 33
131.713134765625
  0
3DFACE
  8
0
 10
379.5727233886719
 20
220.0
 30
131.713134765625
 11
368.5727233886719
 21
440.0
 31
131.713134765625
 12
368.5727233886719
 22
220.0
 32
131.713134765625
 13
368.5727233886719
 23
220.0
 33
131.713134765625
  0
3DFACE
  8
0
 10
172.66700744628906
 20
220.0
 30
142.713134765625
 11
183.66700744628906
 21
440.0
 31
142.713134765625
 12
183.66700744628906
 22
220.0
 32
142.713134765625
 13
183.66700744628906
 23
220.0
 33
142.713134765625
  0
3DFACE
  8
0
 10
183.66700744628906
 20
440.0
 30
142.713134765625
 11
172.66700744628906
 21
220.0
 31
142.713134765625
 12
172.66700744628906
 22
440.0
 32
142.713134765625
 13
172.66700744628906
 23
440.0
 33
142.713134765625
  0
3DFACE
  8
0
 10
368.5727233886719
 20
220.0
 30
142.713134765625
 11
379.5727233886719
 21
440.0
 31
142.713134765625
 12
379.5727233886719
 22
220.0
 32
142.713134765625
 13
379.5727233886719
 23
220.0
 33
142.713134765625
  0
3DFACE
  8
0
 10
379.5727233886719
 20
440.0
 30
142.713134765625
 11
368.5727233886719
 21
220.0
 31
142.713134765625
 12
368.5727233886719
 22
440.0
 32
142.713134765625
 13
368.5727233886719
 23
440.0
 33
142.713134765625
  0
3DFACE
  8
0
 10
175.32296752929688
 20
440.0
 30
259.1113586425781
 11
186.32296752929688
 21
220.0
 31
259.1113586425781
 12
186.32296752929688
 22
440.0
 32
259.1113586425781
 13
186.32296752929688
 23
440.0
 33
259.1113586425781
  0
3DFACE
  8
0
 10
186.32296752929688
 20
220.0
 30
259.1113586425781
 11
175.32296752929688
 21
440.0
 31
259.1113586425781
 12
175.32296752929688
 22
220.0
 32
259.1113586425781
 13
175.32296752929688
 23
220.0
 33
259.1113586425781
  0
3DFACE
  8
0
 10
371.22869873046875
 20
440.0
 30
259.1113586425781
 11
382.22869873046875
 21
220.0
 31
259.1113586425781
 12
382.22869873046875
 22
440.0
 32
259.1113586425781
 13
382.22869873046875
 23
440.0
 33
259.1113586425781
  0
3DFACE
  8
0
 10
382.22869873046875
 20
220.0
 30
259.1113586425781
 11
371.22869873046875
 21
440.0
 31
259.1113586425781
 12
371.22869873046875
 22
220.0
 32
259.1113586425781
 13
371.22869873046875
 23
220.0
 33
259.1113586425781
  0
3DFACE
  8
0
 10
175.32296752929688
 20
220.0
 30
270.1113586425781
 11
186.32296752929688
 21
440.0
 31
270.1113586425781
 12
186.32296752929688
 22
220.0
 32
270.1113586425781
 13
186.32296752929688
 23
220.0
 33
270.1113586425781
  0
3DFACE
  8
0
 10
186.32296752929688
 20
440.0
 30
270.1113586425781
 11
175.32296752929688
 21
220.0
 31
270.1113586425781
 12
175.32296752929688
 22
440.0
 32
270.1113586425781
 13
175.32296752929688
 23
440.0
 33
270.1113586425781
  0
3DFACE
  8
0
 10
371.22869873046875
 20
220.0
 30
270.1113586425781
 11
382.22869873046875
 21
440.0
 31
270.1113586425781
 12
382.22869873046875
 22
220.0
 32
270.1113586425781
 13
382.22869873046875
 23
220.0
 33
270.1113586425781
  0
3DFACE
  8
0
 10
382.22869873046875
 20
440.0
 30
270.1113586425781
 11
371.22869873046875
 21
220.0
 31
270.1113586425781
 12
371.22869873046875
 22
440.0
 32
270.1113586425781
 13
371.22869873046875
 23
440.0
 33
270.1113586425781
  0
3DFACE
  8
0
 10
183.66700744628906
 20
220.0
 30
131.713134765625
 11
172.66700744628906
 21
220.0
 31
142.713134765625
 12
183.66700744628906
 22
220.0
 32
142.713134765625
 13
183.66700744628906
 23
220.0
 33
142.713134765625
  0
3DFACE
  8
0
 10
172.66700744628906
 20
220.0
 30
142.713134765625
 11
183.66700744628906
 21
220.0
 31
131.713134765625
 12
172.66700744628906
 22
220.0
 32
131.713134765625
 13
172.66700744628906
 23
220.0
 33
131.713134765625
  0
3DFACE
  8
0
 10
379.5727233886719
 20
220.0
 30
131.713134765625
 11
368.5727233886719
 21
220.0
 31
142.713134765625
 12
379.5727233886719
 22
220.0
 32
142.713134765625
 13
379.5727233886719
 23
220.0
 33
142.713134765625
  0
3DFACE
  8
0
 10
368.5727233886719
 20
220.0
 30
142.713134765625
 11
379.5727233886719
 21
220.0
 31
131.713134765625
 12
368.5727233886719
 22
220.0
 32
131.713134765625
 13
368.5727233886719
 23
220.0
 33
131.713134765625
  0
3DFACE
  8
0
 10
186.32296752929688
 20
220.0
 30
259.1113586425781
 11
175.32296752929688
 21
220.0
 31
270.1113586425781
 12
186.32296752929688
 22
220.0
 32
270.1113586425781
 13
186.32296752929688
 23
220.0
 33
270.1113586425781
  0
3DFACE
  8
0
 10
175.32296752929688
 20
220.0
 30
270.1113586425781
 11
186.32296752929688
 21
220.0
 31
259.1113586425781
 12
175.32296752929688
 22
220.0
 32
259.1113586425781
 13
175.32296752929688
 23
220.0
 33
259.1113586425781
  0
3DFACE
  8
0
 10
382.22869873046875
 20
220.0
 30
259.1113586425781
 11
371.22869873046875
 21
220.0
 31
270.1113586425781
 12
382.22869873046875
 22
220.0
 32
270.1113586425781
 13
382.22869873046875
 23
220.0
 33
270.1113586425781
  0
3DFACE
  8
0
 10
371.22869873046875
 20
220.0
 30
270.1113586425781
 11
382.22869873046875
 21
220.0
 31
259.1113586425781
 12
371.22869873046875
 22
220.0
 32
259.1113586425781
 13
371.22869873046875
 23
220.0
 33
259.1113586425781
  0
3DFACE
  8
0
 10
172.66700744628906
 20
0.0
 30
131.713134765625
 11
0.0
 21
0.0
 31
131.713134765625
 12
172.66700744628906
 22
220.0
 32
131.713134765625
 13
172.66700744628906
 23
220.0
 33
131.713134765625
  0
3DFACE
  8
0
 10
368.5727233886719
 20
0.0
 30
131.713134765625
 11
183.66700744628906
 21
0.0
 31
131.713134765625
 12
368.5727233886719
 22
220.0
 32
131.713134765625
 13
368.5727233886719
 23
220.0
 33
131.713134765625
  0
3DFACE
  8
0
 10
379.5727233886719
 20
220.0
 30
131.713134765625
 11
518.0
 21
0.0
 31
131.713134765625
 12
379.5727233886719
 22
0.0
 32
131.713134765625
 13
379.5727233886719
 23
0.0
 33
131.713134765625
  0
3DFACE
  8
0
 10
518.0
 20
0.0
 30
131.713134765625
 11
379.5727233886719
 21
220.0
 31
131.713134765625
 12
518.0
 22
440.0
 32
131.713134765625
 13
518.0
 23
440.0
 33
131.713134765625
  0
3DFACE
  8
0
 10
368.5727233886719
 20
220.0
 30
131.713134765625
 11
518.0
 21
440.0
 31
131.713134765625
 12
379.5727233886719
 22
220.0
 32
131.713134765625
 13
379.5727233886719
 23
220.0
 33
131.713134765625
  0
3DFACE
  8
0
 10
183.66700744628906
 20
220.0
 30
131.713134765625
 11
368.5727233886719
 21
220.0
 31
131.713134765625
 12
183.66700744628906
 22
0.0
 32
131.713134765625
 13
183.66700744628906
 23
0.0
 33
131.713134765625
  0
3DFACE
  8
0
 10
183.66700744628906
 20
220.0
 30
131.713134765625
 11
518.0
 21
440.0
 31
131.713134765625
 12
368.5727233886719
 22
220.0
 32
131.713134765625
 13
368.5727233886719
 23
220.0
 33
131.713134765625
  0
3DFACE
  8
0
 10
0.0
 20
440.0
 30
131.713134765625
 11
183.66700744628906
 21
220.0
 31
131.713134765625
 12
172.66700744628906
 22
220.0
 32
131.713134765625
 13
172.66700744628906
 23
220.0
 33
131.713134765625
  0
3DFACE
  8
0
 10
183.66700744628906
 20
220.0
 30
131.713134765625
 11
0.0
 21
440.0
 31
131.713134765625
 12
518.0
 22
440.0
 32
131.713134765625
 13
518.0
 23
440.0
 33
131.713134765625
  0
3DFACE
  8
0
 10
0.0
 20
440.0
 30
131.713134765625
 11
172.66700744628906
 21
220.0
 31
131.713134765625
 12
0.0
 22
0.0
 32
131.713134765625
 13
0.0
 23
0.0
 33
131.713134765625
  0
3DFACE
  8
0
 10
0.0
 20
0.0
 30
131.713134765625
 11
0.0
 21
440.0
 31
142.713134765625
 12
0.0
 22
440.0
 32
131.713134765625
 13
0.0
 23
440.0
 33
131.713134765625
  0
3DFACE
  8
0
 10
0.0
 20
440.0
 30
142.713134765625
 11
0.0
 21
0.0
 31
131.713134765625
 12
0.0
 22
0.0
 32
142.713134765625
 13
0.0
 23
0.0
 33
142.713134765625
  0
3DFACE
  8
0
 10
518.0
 20
440.0
 30
142.713134765625
 11
379.5727233886719
 21
220.0
 31
142.713134765625
 12
518.0
 22
0.0
 32
142.713134765625
 13
518.0
 23
0.0
 33
142.713134765625
  0
3DFACE
  8
0
 10
518.0
 20
440.0
 30
142.713134765625
 11
368.5727233886719
 21
220.0
 31
142.713134765625
 12
379.5727233886719
 22
220.0
 32
142.713134765625
 13
379.5727233886719
 23
220.0
 33
142.713134765625
  0
3DFACE
  8
0
 10
368.5727233886719
 20
220.0
 30
142.713134765625
 11
183.66700744628906
 21
220.0
 31
142.713134765625
 12
368.5727233886719
 22
0.0
 32
142.713134765625
 13
368.5727233886719
 23
0.0
 33
142.713134765625
  0
3DFACE
  8
0
 10
518.0
 20
440.0
 30
142.713134765625
 11
183.66700744628906
 21
220.0
 31
142.713134765625
 12
368.5727233886719
 22
220.0
 32
142.713134765625
 13
368.5727233886719
 23
220.0
 33
142.713134765625
  0
3DFACE
  8
0
 10
0.0
 20
440.0
 30
142.713134765625
 11
183.66700744628906
 21
220.0
 31
142.713134765625
 12
518.0
 22
440.0
 32
142.713134765625
 13
518.0
 23
440.0
 33
142.713134765625
  0
3DFACE
  8
0
 10
183.66700744628906
 20
220.0
 30
142.713134765625
 11
0.0
 21
440.0
 31
142.713134765625
 12
172.66700744628906
 22
220.0
 32
142.713134765625
 13
172.66700744628906
 23
220.0
 33
142.713134765625
  0
3DFACE
  8
0
 10
0.0
 20
0.0
 30
142.713134765625
 11
172.66700744628906
 21
220.0
 31
142.713134765625
 12
0.0
 22
440.0
 32
142.713134765625
 13
0.0
 23
440.0
 33
142.713134765625
  0
3DFACE
  8
0
 10
172.66700744628906
 20
220.0
 30
142.713134765625
 11
0.0
 21
0.0
 31
142.713134765625
 12
172.66700744628906
 22
0.0
 32
142.713134765625
 13
172.66700744628906
 23
0.0
 33
142.713134765625
  0
3DFACE
  8
0
 10
518.0
 20
0.0
 30
142.713134765625
 11
379.5727233886719
 21
220.0
 31
142.713134765625
 12
379.5727233886719
 22
0.0
 32
142.713134765625
 13
379.5727233886719
 23
0.0
 33
142.713134765625
  0
3DFACE
  8
0
 10
368.5727233886719
 20
0.0
 30
142.713134765625
 11
183.66700744628906
 21
220.0
 31
142.713134765625
 12
183.66700744628906
 22
0.0
 32
142.713134765625
 13
183.66700744628906
 23
0.0
 33
142.713134765625
  0
3DFACE
  8
0
 10
518.0
 20
440.0
 30
131.713134765625
 11
0.0
 21
440.0
 31
142.713134765625
 12
518.0
 22
440.0
 32
142.713134765625
 13
518.0
 23
440.0
 33
142.713134765625
  0
3DFACE
  8
0
 10
0.0
 20
440.0
 30
142.713134765625
 11
518.0
 21
440.0
 31
131.713134765625
 12
0.0
 22
440.0
 32
131.713134765625
 13
0.0
 23
440.0
 33
131.713134765625
  0
3DFACE
  8
0
 10
518.0
 20
0.0
 30
142.713134765625
 11
518.0
 21
440.0
 31
131.713134765625
 12
518.0
 22
440.0
 32
142.713134765625
 13
518.0
 23
440.0
 33
142.713134765625
  0
3DFACE
  8
0
 10
518.0
 20
440.0
 30
131.713134765625
 11
518.0
 21
0.0
 31
142.713134765625
 12
518.0
 22
0.0
 32
131.713134765625
 13
518.0
 23
0.0
 33
131.713134765625
  0
3DFACE
  8
0
 10
379.5727233886719
 20
0.0
 30
131.713134765625
 11
518.0
 21
0.0
 31
142.713134765625
 12
379.5727233886719
 22
0.0
 32
142.713134765625
 13
379.5727233886719
 23
0.0
 33
142.713134765625
  0
3DFACE
  8
0
 10
518.0
 20
0.0
 30
142.713134765625
 11
379.5727233886719
 21
0.0
 31
131.713134765625
 12
518.0
 22
0.0
 32
131.713134765625
 13
518.0
 23
0.0
 33
131.713134765625
  0
3DFACE
  8
0
 10
0.0
 20
0.0
 30
131.713134765625
 11
172.66700744628906
 21
0.0
 31
142.713134765625
 12
0.0
 22
0.0
 32
142.713134765625
 13
0.0
 23
0.0
 33
142.713134765625
  0
3DFACE
  8
0
 10
172.66700744628906
 20
0.0
 30
142.713134765625
 11
0.0
 21
0.0
 31
131.713134765625
 12
172.66700744628906
 22
0.0
 32
131.713134765625
 13
172.66700744628906
 23
0.0
 33
131.713134765625
  0
3DFACE
  8
0
 10
183.66700744628906
 20
0.0
 30
131.713134765625
 11
368.5727233886719
 21
0.0
 31
142.713134765625
 12
183.66700744628906
 22
0.0
 32
142.713134765625
 13
183.66700744628906
 23
0.0
 33
142.713134765625
  0
3DFACE
  8
0
 10
368.5727233886719
 20
0.0
 30
142.713134765625
 11
183.66700744628906
 21
0.0
 31
131.713134765625
 12
368.5727233886719
 22
0.0
 32
131.713134765625
 13
368.5727233886719
 23
0.0
 33
131.713134765625
  0
3DFACE
  8
0
 10
175.32296752929688
 20
2.4533612759114476e-06
 30
259.1113586425781
 11
2.655966281890869
 21
2.4533612759114476e-06
 31
259.1113586425781
 12
175.32296752929688
 22
220.0
 32
259.1113586425781
 13
175.32296752929688
 23
220.0
 33
259.1113586425781
  0
3DFACE
  8
0
 10
371.22869873046875
 20
2.4533612759114476e-06
 30
259.1113586425781
 11
186.32296752929688
 21
2.4533612759114476e-06
 31
259.1113586425781
 12
371.22869873046875
 22
220.0
 32
259.1113586425781
 13
371.22869873046875
 23
220.0
 33
259.1113586425781
  0
3DFACE
  8
0
 10
382.22869873046875
 20
220.0
 30
259.1113586425781
 11
520.6559448242188
 21
2.4533612759114476e-06
 31
259.1113586425781
 12
382.22869873046875
 22
2.4533612759114476e-06
 32
259.1113586425781
 13
382.22869873046875
 23
2.4533612759114476e-06
 33
259.1113586425781
  0
3DFACE
  8
0
 10
520.6559448242188
 20
2.4533612759114476e-06
 30
259.1113586425781
 11
382.22869873046875
 21
220.0
 31
259.1113586425781
 12
520.6559448242188
 22
440.0
 32
259.1113586425781
 13
520.6559448242188
 23
440.0
 33
259.1113586425781
  0
3DFACE
  8
0
 10
371.22869873046875
 20
220.0
 30
259.1113586425781
 11
520.6559448242188
 21
440.0
 31
259.1113586425781
 12
382.22869873046875
 22
220.0
 32
259.1113586425781
 13
382.22869873046875
 23
220.0
 33
259.1113586425781
  0
3DFACE
  8
0
 10
186.32296752929688
 20
220.0
 30
259.1113586425781
 11
371.22869873046875
 21
220.0
 31
259.1113586425781
 12
186.32296752929688
 22
2.4533612759114476e-06
 32
259.1113586425781
 13
186.32296752929688
 23
2.4533612759114476e-06
 33
259.1113586425781
  0
3DFACE
  8
0
 10
186.32296752929688
 20
220.0
 30
259.1113586425781
 11
520.6559448242188
 21
440.0
 31
259.1113586425781
 12
371.22869873046875
 22
220.0
 32
259.1113586425781
 13
371.22869873046875
 23
220.0
 33
259.1113586425781
  0
3DFACE
  8
0
 10
2.655966281890869
 20
440.0
 30
259.1113586425781
 11
186.32296752929688
 21
220.0
 31
259.1113586425781
 12
175.32296752929688
 22
220.0
 32
259.1113586425781
 13
175.32296752929688
 23
220.0
 33
259.1113586425781
  0
3DFACE
  8
0
 10
186.32296752929688
 20
220.0
 30
259.1113586425781
 11
2.655966281890869
 21
440.0
 31
259.1113586425781
 12
520.6559448242188
 22
440.0
 32
259.1113586425781
 13
520.6559448242188
 23
440.0
 33
259.1113586425781
  0
3DFACE
  8
0
 10
2.655966281890869
 20
440.0
 30
259.1113586425781
 11
175.32296752929688
 21
220.0
 31
259.1113586425781
 12
2.655966281890869
 22
2.4533612759114476e-06
 32
259.1113586425781
 13
2.655966281890869
 23
2.4533612759114476e-06
 33
259.1113586425781
  0
3DFACE
  8
0
 10
2.655966281890869
 20
2.4533612759114476e-06
 30
259.1113586425781
 11
2.655966281890869
 21
440.0
 31
270.1113586425781
 12
2.655966281890869
 22
440.0
 32
259.1113586425781
 13
2.655966281890869
 23
440.0
 33
259.1113586425781
  0
3DFACE
  8
0
 10
2.655966281890869
 20
440.0
 30
270.1113586425781
 11
2.655966281890869
 21
2.4533612759114476e-06
 31
259.1113586425781
 12
2.655966281890869
 22
2.4533612759114476e-06
 32
270.1113586425781
 13
2.655966281890869
 23
2.4533612759114476e-06
 33
270.1113586425781
  0
3DFACE
  8
0
 10
520.6559448242188
 20
440.0
 30
270.1113586425781
 11
382.22869873046875
 21
220.0
 31
270.1113586425781
 12
520.6559448242188
 22
2.4533612759114476e-06
 32
270.1113586425781
 13
520.6559448242188
 23
2.4533612759114476e-06
 33
270.1113586425781
  0
3DFACE
  8
0
 10
520.6559448242188
 20
440.0
 30
270.1113586425781
 11
371.22869873046875
 21
220.0
 31
270.1113586425781
 12
382.22869873046875
 22
220.0
 32
270.1113586425781
 13
382.22869873046875
 23
220.0
 33
270.1113586425781
  0
3DFACE
  8
0
 10
371.22869873046875
 20
220.0
 30
270.1113586425781
 11
186.32296752929688
 21
220.0
 31
270.1113586425781
 12
371.22869873046875
 22
2.4533612759114476e-06
 32
270.1113586425781
 13
371.22869873046875
 23
2.4533612759114476e-06
 33
270.1113586425781
  0
3DFACE
  8
0
 10
520.6559448242188
 20
440.0
 30
270.1113586425781
 11
186.32296752929688
 21
220.0
 31
270.1113586425781
 12
371.22869873046875
 22
220.0
 32
270.1113586425781
 13
371.22869873046875
 23
220.0
 33
270.1113586425781
  0
3DFACE
  8
0
 10
2.655966281890869
 20
440.0
 30
270.1113586425781
 11
186.32296752929688
 21
220.0
 31
270.1113586425781
 12
520.6559448242188
 22
440.0
 32
270.1113586425781
 13
520.6559448242188
 23
440.0
 33
270.1113586425781
  0
3DFACE
  8
0
 10
186.32296752929688
 20
220.0
 30
270.1113586425781
 11
2.655966281890869
 21
440.0
 31
270.1113586425781
 12
175.32296752929688
 22
220.0
 32
270.1113586425781
 13
175.32296752929688
 23
220.0
 33
270.1113586425781
  0
3DFACE
  8
0
 10
2.655966281890869
 20
2.4533612759114476e-06
 30
270.1113586425781
 11
175.32296752929688
 21
220.0
 31
270.1113586425781
 12
2.655966281890869
 22
440.0
 32
270.1113586425781
 13
2.655966281890869
 23
440.0
 33
270.1113586425781
  0
3DFACE
  8
0
 10
175.32296752929688
 20
220.0
 30
270.1113586425781
 11
2.655966281890869
 21
2.4533612759114476e-06
 31
270.1113586425781
 12
175.32296752929688
 22
2.4533612759114476e-06
 32
270.1113586425781
 13
175.32296752929688
 23
2.4533612759114476e-06
 33
270.1113586425781
  0
3DFACE
  8
0
 10
520.6559448242188
 20
2.4533612759114476e-06
 30
270.1113586425781
 11
382.22869873046875
 21
220.0
 31
270.1113586425781
 12
382.22869873046875
 22
2.4533612759114476e-06
 32
270.1113586425781
 13
382.22869873046875
 23
2.4533612759114476e-06
 33
270.1113586425781
  0
3DFACE
  8
0
 10
371.22869873046875
 20
2.4533612759114476e-06
 30
270.1113586425781
 11
186.32296752929688
 21
220.0
 31
270.1113586425781
 12
186.32296752929688
 22
2.4533612759114476e-06
 32
270.1113586425781
 13
186.32296752929688
 23
2.4533612759114476e-06
 33
270.1113586425781
  0
3DFACE
  8
0
 10
520.6559448242188
 20
440.0
 30
259.1113586425781
 11
2.655966281890869
 21
440.0
 31
270.1113586425781
 12
520.6559448242188
 22
440.0
 32
270.1113586425781
 13
520.6559448242188
 23
440.0
 33
270.1113586425781
  0
3DFACE
  8
0
 10
2.655966281890869
 20
440.0
 30
270.1113586425781
 11
520.6559448242188
 21
440.0
 31
259.1113586425781
 12
2.655966281890869
 22
440.0
 32
259.1113586425781
 13
2.655966281890869
 23
440.0
 33
259.1113586425781
  0
3DFACE
  8
0
 10
520.6559448242188
 20
2.4533612759114476e-06
 30
270.1113586425781
 11
520.6559448242188
 21
440.0
 31
259.1113586425781
 12
520.6559448242188
 22
440.0
 32
270.1113586425781
 13
520.6559448242188
 23
440.0
 33
270.1113586425781
  0
3DFACE
  8
0
 10
520.6559448242188
 20
440.0
 30
259.1113586425781
 11
520.6559448242188
 21
2.4533612759114476e-06
 31
270.1113586425781
 12
520.6559448242188
 22
2.4533612759114476e-06
 32
259.1113586425781
 13
520.6559448242188
 23
2.4533612759114476e-06
 33
259.1113586425781
  0
3DFACE
  8
0
 10
382.22869873046875
 20
2.4533612759114476e-06
 30
259.1113586425781
 11
520.6559448242188
 21
2.4533612759114476e-06
 31
270.1113586425781
 12
382.22869873046875
 22
2.4533612759114476e-06
 32
270.1113586425781
 13
382.22869873046875
 23
2.4533612759114476e-06
 33
270.1113586425781
  0
3DFACE
  8
0
 10
520.6559448242188
 20
2.4533612759114476e-06
 30
270.1113586425781
 11
382.22869873046875
 21
2.4533612759114476e-06
 31
259.1113586425781
 12
520.6559448242188
 22
2.4533612759114476e-06
 32
259.1113586425781
 13
520.6559448242188
 23
2.4533612759114476e-06
 33
259.1113586425781
  0
3DFACE
  8
0
 10
2.655966281890869
 20
2.4533612759114476e-06
 30
259.1113586425781
 11
175.32296752929688
 21
2.4533612759114476e-06
 31
270.1113586425781
 12
2.655966281890869
 22
2.4533612759114476e-06
 32
270.1113586425781
 13
2.655966281890869
 23
2.4533612759114476e-06
 33
270.1113586425781
  0
3DFACE
  8
0
 10
175.32296752929688
 20
2.4533612759114476e-06
 30
270.1113586425781
 11
2.655966281890869
 21
2.4533612759114476e-06
 31
259.1113586425781
 12
175.32296752929688
 22
2.4533612759114476e-06
 32
259.1113586425781
 13
175.32296752929688
 23
2.4533612759114476e-06
 33
259.1113586425781
  0
3DFACE
  8
0
 10
186.32296752929688
 20
2.4533612759114476e-06
 30
259.1113586425781
 11
371.22869873046875
 21
2.4533612759114476e-06
 31
270.1113586425781
 12
186.32296752929688
 22
2.4533612759114476e-06
 32
270.1113586425781
 13
186.32296752929688
 23
2.4533612759114476e-06
 33
270.1113586425781
  0
3DFACE
  8
0
 10
371.22869873046875
 20
2.4533612759114476e-06
 30
270.1113586425781
 11
186.32296752929688
 21
2.4533612759114476e-06
 31
259.1113586425781
 12
371.22869873046875
 22
2.4533612759114476e-06
 32
259.1113586425781
 13
371.22869873046875
 23
2.4533612759114476e-06
 33
259.1113586425781
  0
3DFACE
  8
0
 10
172.66700744628906
 20
0.0
 30
142.713134765625
 11
172.66700744628906
 21
220.0
 31
131.713134765625
 12
172.66700744628906
 22
220.0
 32
142.713134765625
 13
172.66700744628906
 23
220.0
 33
142.713134765625
  0
3DFACE
  8
0
 10
172.66700744628906
 20
220.0
 30
131.713134765625
 11
172.66700744628906
 21
0.0
 31
142.713134765625
 12
172.66700744628906
 22
0.0
 32
131.713134765625
 13
172.66700744628906
 23
0.0
 33
131.713134765625
  0
3DFACE
  8
0
 10
175.32296752929688
 20
2.4533612759114476e-06
 30
270.1113586425781
 11
175.32296752929688
 21
220.0
 31
259.1113586425781
 12
175.32296752929688
 22
220.0
 32
270.1113586425781
 13
175.32296752929688
 23
220.0
 33
270.1113586425781
  0
3DFACE
  8
0
 10
175.32296752929688
 20
220.0
 30
259.1113586425781
 11
175.32296752929688
 21
2.4533612759114476e-06
 31
270.1113586425781
 12
175.32296752929688
 22
2.4533612759114476e-06
 32
259.1113586425781
 13
175.32296752929688
 23
2.4533612759114476e-06
 33
259.1113586425781
  0
3DFACE
  8
0
 10
183.66700744628906
 20
0.0
 30
131.713134765625
 11
183.66700744628906
 21
220.0
 31
142.713134765625
 12
183.66700744628906
 22
220.0
 32
131.713134765625
 13
183.66700744628906
 23
220.0
 33
131.713134765625
  0
3DFACE
  8
0
 10
183.66700744628906
 20
220.0
 30
142.713134765625
 11
183.66700744628906
 21
0.0
 31
131.713134765625
 12
183.66700744628906
 22
0.0
 32
142.713134765625
 13
183.66700744628906
 23
0.0
 33
142.713134765625
  0
3DFACE
  8
0
 10
186.32296752929688
 20
2.4533612759114476e-06
 30
259.1113586425781
 11
186.32296752929688
 21
220.0
 31
270.1113586425781
 12
186.32296752929688
 22
220.0
 32
259.1113586425781
 13
186.32296752929688
 23
220.0
 33
259.1113586425781
  0
3DFACE
  8
0
 10
186.32296752929688
 20
220.0
 30
270.1113586425781
 11
186.32296752929688
 21
2.4533612759114476e-06
 31
259.1113586425781
 12
186.32296752929688
 22
2.4533612759114476e-06
 32
270.1113586425781
 13
186.32296752929688
 23
2.4533612759114476e-06
 33
270.1113586425781
  0
3DFACE
  8
0
 10
368.5727233886719
 20
0.0
 30
142.713134765625
 11
368.5727233886719
 21
220.0
 31
131.713134765625
 12
368.5727233886719
 22
220.0
 32
142.713134765625
 13
368.5727233886719
 23
220.0
 33
142.713134765625
  0
3DFACE
  8
0
 10
368.5727233886719
 20
220.0
 30
131.713134765625
 11
368.5727233886719
 21
0.0
 31
142.713134765625
 12
368.5727233886719
 22
0.0
 32
131.713134765625
 13
368.5727233886719
 23
0.0
 33
131.713134765625
  0
3DFACE
  8
0
 10
371.22869873046875
 20
2.4533612759114476e-06
 30
270.1113586425781
 11
371.22869873046875
 21
220.0
 31
259.1113586425781
 12
371.22869873046875
 22
220.0
 32
270.1113586425781
 13
371.22869873046875
 23
220.0
 33
270.1113586425781
  0
3DFACE
  8
0
 10
371.22869873046875
 20
220.0
 30
259.1113586425781
 11
371.22869873046875
 21
2.4533612759114476e-06
 31
270.1113586425781
 12
371.22869873046875
 22
2.4533612759114476e-06
 32
259.1113586425781
 13
371.22869873046875
 23
2.4533612759114476e-06
 33
259.1113586425781
  0
3DFACE
  8
0
 10
379.5727233886719
 20
0.0
 30
131.713134765625
 11
379.5727233886719
 21
220.0
 31
142.713134765625
 12
379.5727233886719
 22
220.0
 32
131.713134765625
 13
379.5727233886719
 23
220.0
 33
131.713134765625
  0
3DFACE
  8
0
 10
379.5727233886719
 20
220.0
 30
142.713134765625
 11
379.5727233886719
 21
0.0
 31
131.713134765625
 12
379.5727233886719
 22
0.0
 32
142.713134765625
 13
379.5727233886719
 23
0.0
 33
142.713134765625
  0
3DFACE
  8
0
 10
382.22869873046875
 20
2.4533612759114476e-06
 30
259.1113586425781
 11
382.22869873046875
 21
220.0
 31
270.1113586425781
 12
382.22869873046875
 22
220.0
 32
259.1113586425781
 13
382.22869873046875
 23
220.0
 33
259.1113586425781
  0
3DFACE
  8
0
 10
382.22869873046875
 20
220.0
 30
270.1113586425781
 11
382.22869873046875
 21
2.4533612759114476e-06
 31
259.1113586425781
 12
382.22869873046875
 22
2.4533612759114476e-06
 32
270.1113586425781
 13
382.22869873046875
 23
2.4533612759114476e-06
 33
270.1113586425781
  0
3DFACE
  8
0
 10
172.66700744628906
 20
220.0
 30
131.713134765625
 11
183.66700744628906
 21
220.0
 31
142.713134765625
 12
172.66700744628906
 22
220.0
 32
142.713134765625
 13
172.66700744628906
 23
220.0
 33
142.713134765625
  0
3DFACE
  8
0
 10
183.66700744628906
 20
220.0
 30
142.713134765625
 11
172.66700744628906
 21
220.0
 31
131.713134765625
 12
183.66700744628906
 22
220.0
 32
131.713134765625
 13
183.66700744628906
 23
220.0
 33
131.713134765625
  0
3DFACE
  8
0
 10
368.5727233886719
 20
220.0
 30
131.713134765625
 11
379.5727233886719
 21
220.0
 31
142.713134765625
 12
368.5727233886719
 22
220.0
 32
142.713134765625
 13
368.5727233886719
 23
220.0
 33
142.713134765625
  0
3DFACE
  8
0
 10
379.5727233886719
 20
220.0
 30
142.713134765625
 11
368.5727233886719
 21
220.0
 31
131.713134765625
 12
379.5727233886719
 22
220.0
 32
131.713134765625
 13
379.5727233886719
 23
220.0
 33
131.713134765625
  0
3DFACE
  8
0
 10
175.32296752929688
 20
220.0
 30
259.1113586425781
 11
186.32296752929688
 21
220.0
 31
270.1113586425781
 12
175.32296752929688
 22
220.0
 32
270.1113586425781
 13
175.32296752929688
 23
220.0
 33
270.1113586425781
  0
3DFACE
  8
0
 10
186.32296752929688
 20
220.0
 30
270.1113586425781
 11
175.32296752929688
 21
220.0
 31
259.1113586425781
 12
186.32296752929688
 22
220.0
 32
259.1113586425781
 13
186.32296752929688
 23
220.0
 33
259.1113586425781
  0
3DFACE
  8
0
 10
371.22869873046875
 20
220.0
 30
259.1113586425781
 11
382.22869873046875
 21
220.0
 31
270.1113586425781
 12
371.22869873046875
 22
220.0
 32
270.1113586425781
 13
371.22869873046875
 23
220.0
 33
270.1113586425781
  0
3DFACE
  8
0
 10
382.22869873046875
 20
220.0
 30
270.1113586425781
 11
371.22869873046875
 21
220.0
 31
259.1113586425781
 12
382.22869873046875
 22
220.0
 32
259.1113586425781
 13
382.22869873046875
 23
220.0
 33
259.1113586425781
  0
ENDSEC
  0
EOF
