  0
SECTION
  2
HEADER
  9
$ACADVER
  1
AC1009
  9
$INSBASE
 10
0.0
 20
0.0
 30
0.0
  9
$EXTMIN
 10
0.0
 20
0.0
 30
0.0
  9
$EXTMAX
 10
0.0
 20
0.0
 30
0.0
  0
ENDSEC
  0
SECTION
  2
TABLES
  0
TABLE
  2
VPORT
 70
1
  0
VPORT
  2
*ACTIVE
 70
0
 10
0.0
 20
0.0
 11
1.0
 21
1.0
 12
-5.0
 22
1.0
 13
0.0
 23
0.0
 14
0.1
 24
0.1
 15
0.1
 25
0.1
 16
0.0
 26
0.0
 36
1.0
 17
0.0
 27
0.0
 37
0.0
 40
10.0
 41
1.0
 42
50.0
 43
0.0
 44
0.0
 50
0.0
 51
0.0
 71
0
 72
100
 73
1
 74
1
 75
0
 76
0
 77
0
 78
0
  0
ENDTAB
  0
TABLE
  2
LTYPE
 70
8
  0
LTYPE
  2
CONTINUOUS
 70
0
  3
Solid line
 72
65
 73
0
 40
0.0
  0
LTYPE
  2
DOT
 70
0
  3
. . . . . . .
 72
65
 73
2
 40
0.25
 49
0.0
 49
-0.25
  0
LTYPE
  2
DASHED
 70
0
  3
__ __ __ __ __
 72
65
 73
2
 40
0.8
 49
0.5
 49
-0.3
  0
LTYPE
  2
DASHDOT
 70
0
  3
__ . __ . __ .
 72
65
 73
4
 40
1.0
 49
0.5
 49
-0.25
 49
0.0
 49
-0.25
  0
LTYPE
  2
DIVIDE
 70
0
  3
____ . . ____ . . 
 72
65
 73
6
 40
1.25
 49
0.5
 49
-0.25
 49
0.0
 49
-0.25
 49
0.0
 49
-0.25
  0
LTYPE
  2
BORDER
 70
0
  3
__ __ . __ __ . 
 72
65
 73
6
 40
1.75
 49
0.5
 49
-0.25
 49
0.5
 49
-0.25
 49
0.0
 49
-0.25
  0
LTYPE
  2
HIDDEN
 70
0
  3
__ __ __ __ __
 72
65
 73
2
 40
0.4
 49
0.25
 49
-0.25
  0
LTYPE
  2
CENTER
 70
0
  3
____ _ ____ _ __
 72
65
 73
4
 40
2.0
 49
1.25
 49
-0.25
 49
0.25
 49
-0.25
  0
ENDTAB
  0
TABLE
  2
LAYER
 70
1
  0
LAYER
  2
PYDXF
 70
64
 62
7
  6
continuous
  0
ENDTAB
  0
TABLE
  2
STYLE
 70
1
  0
STYLE
  2
STANDARD
 70
0
 40
0
 41
1.0
 50
0.0
 71
0
 42
1
 3
ARIAL.TTF
 4

  0
ENDTAB
  0
TABLE
  2
VIEW
 70
1
  0
VIEW
  2
BF_TOPVIEW
 70
0
 40
120.0
 10
0.0
 20
0.0
 41
200.0
 11
0.0
 21
0.0
 31
1.0
 12
0.0
 22
0.0
 32
0.0
 42
50.0
 43
0.0
 44
0.0
 50
0.0
 71
0
  0
ENDTAB
  0
ENDSEC
  0
SECTION
  2
BLOCKS
  0
ENDSEC
  0
SECTION
  2
ENTITIES
  0
LINE
  8
0
 10
518.0
 20
440.0
 30
461.742919921875
 11
518.0
 21
0.0
 31
461.742919921875
  0
LINE
  8
0
 10
0.0
 20
440.0
 30
461.742919921875
 11
0.0
 21
0.0
 31
461.742919921875
  0
LINE
  8
0
 10
266.6119384765625
 20
15.714300155639648
 30
461.742919921875
 11
270.0
 21
15.714301109313965
 31
461.742919921875
  0
LINE
  8
0
 10
262.3880615234375
 20
31.42860221862793
 30
461.742919921875
 11
270.0
 21
31.42860221862793
 31
461.742919921875
  0
LINE
  8
0
 10
262.3880615234375
 20
31.42860221862793
 30
461.742919921875
 11
259.0
 21
31.428600311279297
 31
461.742919921875
  0
LINE
  8
0
 10
266.6119384765625
 20
141.4290008544922
 30
461.742919921875
 11
259.0
 21
141.4290008544922
 31
461.742919921875
  0
LINE
  8
0
 10
270.0
 20
31.42860221862793
 30
461.742919921875
 11
270.0
 21
20.554393768310547
 31
461.742919921875
  0
LINE
  8
0
 10
262.3880615234375
 20
157.14300537109375
 30
461.742919921875
 11
270.0
 21
157.14300537109375
 31
461.742919921875
  0
LINE
  8
0
 10
262.3880615234375
 20
157.14300537109375
 30
461.742919921875
 11
259.0
 21
157.14300537109375
 31
461.742919921875
  0
LINE
  8
0
 10
266.6119384765625
 20
110.0
 30
461.742919921875
 11
259.0
 21
110.0
 31
461.742919921875
  0
LINE
  8
0
 10
266.6119384765625
 20
110.0
 30
461.742919921875
 11
270.0
 21
110.0
 31
461.742919921875
  0
LINE
  8
0
 10
262.3880615234375
 20
62.85710525512695
 30
461.742919921875
 11
270.0
 21
62.85710525512695
 31
461.742919921875
  0
LINE
  8
0
 10
262.3880615234375
 20
62.85710525512695
 30
461.742919921875
 11
259.0
 21
62.85710144042969
 31
461.742919921875
  0
LINE
  8
0
 10
266.6119384765625
 20
47.14289855957031
 30
461.742919921875
 11
270.0
 21
47.14289855957031
 31
461.742919921875
  0
LINE
  8
0
 10
270.0
 20
110.0
 30
461.742919921875
 11
270.0
 21
114.83999633789062
 31
461.742919921875
  0
LINE
  8
0
 10
259.0
 20
110.0
 30
461.742919921875
 11
259.0
 21
120.87399291992188
 31
461.742919921875
  0
LINE
  8
0
 10
270.0
 20
83.4114990234375
 30
461.742919921875
 11
270.0
 21
78.57140350341797
 31
461.742919921875
  0
LINE
  8
0
 10
259.0
 20
89.44561004638672
 30
461.742919921875
 11
259.0
 21
78.57140350341797
 31
461.742919921875
  0
LINE
  8
0
 10
270.0
 20
62.85710525512695
 30
461.742919921875
 11
270.0
 21
51.98296356201172
 31
461.742919921875
  0
LINE
  8
0
 10
270.0
 20
47.14289855957031
 30
461.742919921875
 11
270.0
 21
51.98296356201172
 31
461.742919921875
  0
LINE
  8
0
 10
270.0
 20
15.714301109313965
 30
461.742919921875
 11
270.0
 21
20.554393768310547
 31
461.742919921875
  0
LINE
  8
0
 10
266.6119384765625
 20
15.714300155639648
 30
461.742919921875
 11
259.0
 21
15.714300155639648
 31
461.742919921875
  0
LINE
  8
0
 10
262.3880615234375
 20
125.71400451660156
 30
461.742919921875
 11
259.0
 21
125.71399688720703
 31
461.742919921875
  0
LINE
  8
0
 10
262.3880615234375
 20
125.71400451660156
 30
461.742919921875
 11
270.0
 21
125.71400451660156
 31
461.742919921875
  0
LINE
  8
0
 10
262.3880615234375
 20
94.28570556640625
 30
461.742919921875
 11
259.0
 21
94.28569793701172
 31
461.742919921875
  0
LINE
  8
0
 10
259.0
 20
89.44561004638672
 30
461.742919921875
 11
259.0
 21
94.28569793701172
 31
461.742919921875
  0
LINE
  8
0
 10
259.0
 20
62.85710144042969
 30
461.742919921875
 11
259.0
 21
58.01704025268555
 31
461.742919921875
  0
LINE
  8
0
 10
259.0
 20
31.428600311279297
 30
461.742919921875
 11
259.0
 21
26.58850860595703
 31
461.742919921875
  0
LINE
  8
0
 10
266.6119384765625
 20
141.4290008544922
 30
461.742919921875
 11
270.0
 21
141.4290008544922
 31
461.742919921875
  0
LINE
  8
0
 10
270.0
 20
114.83999633789062
 30
461.742919921875
 11
270.0
 21
125.71400451660156
 31
461.742919921875
  0
LINE
  8
0
 10
259.0
 20
120.87399291992188
 30
461.742919921875
 11
259.0
 21
125.71399688720703
 31
461.742919921875
  0
LINE
  8
0
 10
270.0
 20
83.4114990234375
 30
461.742919921875
 11
270.0
 21
94.28570556640625
 31
461.742919921875
  0
LINE
  8
0
 10
259.0
 20
58.01704025268555
 30
461.742919921875
 11
259.0
 21
47.14289855957031
 31
461.742919921875
  0
LINE
  8
0
 10
259.0
 20
15.714300155639648
 30
461.742919921875
 11
259.0
 21
26.58850860595703
 31
461.742919921875
  0
LINE
  8
0
 10
262.3880615234375
 20
94.28570556640625
 30
461.742919921875
 11
270.0
 21
94.28570556640625
 31
461.742919921875
  0
LINE
  8
0
 10
270.0
 20
78.57140350341797
 30
461.742919921875
 11
266.6119384765625
 21
78.57140350341797
 31
461.742919921875
  0
LINE
  8
0
 10
259.0
 20
78.57140350341797
 30
461.742919921875
 11
266.6119384765625
 21
78.57140350341797
 31
461.742919921875
  0
LINE
  8
0
 10
266.6119384765625
 20
47.14289855957031
 30
461.742919921875
 11
259.0
 21
47.14289855957031
 31
461.742919921875
  0
LINE
  8
0
 10
262.3880615234375
 20
220.0
 30
461.742919921875
 11
270.0
 21
220.0
 31
461.742919921875
  0
LINE
  8
0
 10
262.3880615234375
 20
220.0
 30
461.742919921875
 11
259.0
 21
220.0
 31
461.742919921875
  0
LINE
  8
0
 10
259.0
 20
220.0
 30
461.742919921875
 11
259.0
 21
215.16000366210938
 31
461.742919921875
  0
LINE
  8
0
 10
270.0
 20
209.12600708007812
 30
461.742919921875
 11
270.0
 21
204.2860107421875
 31
461.742919921875
  0
LINE
  8
0
 10
266.6119384765625
 20
172.85699462890625
 30
461.742919921875
 11
270.0
 21
172.85699462890625
 31
461.742919921875
  0
LINE
  8
0
 10
266.6119384765625
 20
172.85699462890625
 30
461.742919921875
 11
259.0
 21
172.85699462890625
 31
461.742919921875
  0
LINE
  8
0
 10
259.0
 20
157.14300537109375
 30
461.742919921875
 11
259.0
 21
152.30300903320312
 31
461.742919921875
  0
LINE
  8
0
 10
270.0
 20
157.14300537109375
 30
461.742919921875
 11
270.0
 21
146.26901245117188
 31
461.742919921875
  0
LINE
  8
0
 10
270.0
 20
141.4290008544922
 30
461.742919921875
 11
270.0
 21
146.26901245117188
 31
461.742919921875
  0
LINE
  8
0
 10
259.0
 20
141.4290008544922
 30
461.742919921875
 11
259.0
 21
152.30300903320312
 31
461.742919921875
  0
LINE
  8
0
 10
270.0
 20
240.5543212890625
 30
461.742919921875
 11
270.0
 21
251.42901611328125
 31
461.742919921875
  0
LINE
  8
0
 10
262.3880615234375
 20
251.42901611328125
 30
461.742919921875
 11
259.0
 21
251.42901611328125
 31
461.742919921875
  0
LINE
  8
0
 10
266.6119384765625
 20
235.71400451660156
 30
461.742919921875
 11
259.0
 21
235.71400451660156
 31
461.742919921875
  0
LINE
  8
0
 10
266.6119384765625
 20
235.71400451660156
 30
461.742919921875
 11
270.0
 21
235.71401977539062
 31
461.742919921875
  0
LINE
  8
0
 10
259.0
 20
215.16000366210938
 30
461.742919921875
 11
259.0
 21
204.2860107421875
 31
461.742919921875
  0
LINE
  8
0
 10
270.0
 20
204.2860107421875
 30
461.742919921875
 11
266.6119384765625
 21
204.2860107421875
 31
461.742919921875
  0
LINE
  8
0
 10
259.0
 20
204.2860107421875
 30
461.742919921875
 11
266.6119384765625
 21
204.2860107421875
 31
461.742919921875
  0
LINE
  8
0
 10
262.3880615234375
 20
188.57101440429688
 30
461.742919921875
 11
270.0
 21
188.57101440429688
 31
461.742919921875
  0
LINE
  8
0
 10
270.0
 20
188.57101440429688
 30
461.742919921875
 11
270.0
 21
177.69699096679688
 31
461.742919921875
  0
LINE
  8
0
 10
262.3880615234375
 20
188.57101440429688
 30
461.742919921875
 11
259.0
 21
188.5709991455078
 31
461.742919921875
  0
LINE
  8
0
 10
259.0
 20
172.85699462890625
 30
461.742919921875
 11
259.0
 21
183.7310028076172
 31
461.742919921875
  0
LINE
  8
0
 10
270.0
 20
172.85699462890625
 30
461.742919921875
 11
270.0
 21
177.69699096679688
 31
461.742919921875
  0
LINE
  8
0
 10
259.0
 20
188.5709991455078
 30
461.742919921875
 11
259.0
 21
183.7310028076172
 31
461.742919921875
  0
LINE
  8
0
 10
270.0
 20
220.0
 30
461.742919921875
 11
270.0
 21
209.12600708007812
 31
461.742919921875
  0
LINE
  8
0
 10
270.0
 20
366.26898193359375
 30
461.742919921875
 11
270.0
 21
377.14300537109375
 31
461.742919921875
  0
LINE
  8
0
 10
259.0
 20
372.3030090332031
 30
461.742919921875
 11
259.0
 21
377.14300537109375
 31
461.742919921875
  0
LINE
  8
0
 10
270.0
 20
366.26898193359375
 30
461.742919921875
 11
270.0
 21
361.4289855957031
 31
461.742919921875
  0
LINE
  8
0
 10
270.0
 20
377.14300537109375
 30
461.742919921875
 11
262.3880615234375
 21
377.14300537109375
 31
461.742919921875
  0
LINE
  8
0
 10
270.0
 20
361.4289855957031
 30
461.742919921875
 11
266.6119384765625
 21
361.4289855957031
 31
461.742919921875
  0
LINE
  8
0
 10
266.6119384765625
 20
361.4289855957031
 30
461.742919921875
 11
259.0
 21
361.4289855957031
 31
461.742919921875
  0
LINE
  8
0
 10
270.0
 20
334.8399963378906
 30
461.742919921875
 11
270.0
 21
345.7139892578125
 31
461.742919921875
  0
LINE
  8
0
 10
270.0
 20
334.8399963378906
 30
461.742919921875
 11
270.0
 21
330.0
 31
461.742919921875
  0
LINE
  8
0
 10
259.0
 20
340.8739929199219
 30
461.742919921875
 11
259.0
 21
345.7139892578125
 31
461.742919921875
  0
LINE
  8
0
 10
259.0
 20
340.8739929199219
 30
461.742919921875
 11
259.0
 21
330.0
 31
461.742919921875
  0
LINE
  8
0
 10
270.0
 20
345.7139892578125
 30
461.742919921875
 11
262.3880615234375
 21
345.7139892578125
 31
461.742919921875
  0
LINE
  8
0
 10
270.0
 20
330.0
 30
461.742919921875
 11
266.6119384765625
 21
330.0
 31
461.742919921875
  0
LINE
  8
0
 10
259.0
 20
330.0
 30
461.742919921875
 11
266.6119384765625
 21
330.0
 31
461.742919921875
  0
LINE
  8
0
 10
259.0
 20
345.7139892578125
 30
461.742919921875
 11
262.3880615234375
 21
345.7139892578125
 31
461.742919921875
  0
LINE
  8
0
 10
262.3880615234375
 20
314.2860107421875
 30
461.742919921875
 11
259.0
 21
314.2860107421875
 31
461.742919921875
  0
LINE
  8
0
 10
270.0
 20
303.41131591796875
 30
461.742919921875
 11
270.0
 21
298.571044921875
 31
461.742919921875
  0
LINE
  8
0
 10
259.0
 20
309.4456787109375
 30
461.742919921875
 11
259.0
 21
298.5710144042969
 31
461.742919921875
  0
LINE
  8
0
 10
262.3880615234375
 20
314.2860107421875
 30
461.742919921875
 11
270.0
 21
314.2860107421875
 31
461.742919921875
  0
LINE
  8
0
 10
259.0
 20
314.2860107421875
 30
461.742919921875
 11
259.0
 21
309.4456787109375
 31
461.742919921875
  0
LINE
  8
0
 10
270.0
 20
298.571044921875
 30
461.742919921875
 11
266.6119384765625
 21
298.5710144042969
 31
461.742919921875
  0
LINE
  8
0
 10
259.0
 20
298.5710144042969
 30
461.742919921875
 11
266.6119384765625
 21
298.5710144042969
 31
461.742919921875
  0
LINE
  8
0
 10
270.0
 20
303.41131591796875
 30
461.742919921875
 11
270.0
 21
314.2860107421875
 31
461.742919921875
  0
LINE
  8
0
 10
259.0
 20
278.0169982910156
 30
461.742919921875
 11
259.0
 21
282.85699462890625
 31
461.742919921875
  0
LINE
  8
0
 10
270.0
 20
271.9830017089844
 30
461.742919921875
 11
270.0
 21
267.14300537109375
 31
461.742919921875
  0
LINE
  8
0
 10
259.0
 20
282.85699462890625
 30
461.742919921875
 11
262.3880615234375
 21
282.85699462890625
 31
461.742919921875
  0
LINE
  8
0
 10
262.3880615234375
 20
282.85699462890625
 30
461.742919921875
 11
270.0
 21
282.85699462890625
 31
461.742919921875
  0
LINE
  8
0
 10
259.0
 20
278.0169982910156
 30
461.742919921875
 11
259.0
 21
267.14300537109375
 31
461.742919921875
  0
LINE
  8
0
 10
270.0
 20
271.9830017089844
 30
461.742919921875
 11
270.0
 21
282.85699462890625
 31
461.742919921875
  0
LINE
  8
0
 10
259.0
 20
267.14300537109375
 30
461.742919921875
 11
266.6119384765625
 21
267.14300537109375
 31
461.742919921875
  0
LINE
  8
0
 10
270.0
 20
267.14300537109375
 30
461.742919921875
 11
266.6119384765625
 21
267.14300537109375
 31
461.742919921875
  0
LINE
  8
0
 10
259.0
 20
235.71400451660156
 30
461.742919921875
 11
259.0
 21
246.5886993408203
 31
461.742919921875
  0
LINE
  8
0
 10
270.0
 20
240.5543212890625
 30
461.742919921875
 11
270.0
 21
235.71401977539062
 31
461.742919921875
  0
LINE
  8
0
 10
259.0
 20
251.42901611328125
 30
461.742919921875
 11
259.0
 21
246.5886993408203
 31
461.742919921875
  0
LINE
  8
0
 10
270.0
 20
251.42901611328125
 30
461.742919921875
 11
262.3880615234375
 21
251.42901611328125
 31
461.742919921875
  0
LINE
  8
0
 10
259.0
 20
403.7309875488281
 30
461.742919921875
 11
259.0
 21
408.57098388671875
 31
461.742919921875
  0
LINE
  8
0
 10
270.0
 20
397.697021484375
 30
461.742919921875
 11
270.0
 21
392.85699462890625
 31
461.742919921875
  0
LINE
  8
0
 10
259.0
 20
403.7309875488281
 30
461.742919921875
 11
259.0
 21
392.85699462890625
 31
461.742919921875
  0
LINE
  8
0
 10
270.0
 20
392.85699462890625
 30
461.742919921875
 11
266.6119384765625
 21
392.85699462890625
 31
461.742919921875
  0
LINE
  8
0
 10
262.3880615234375
 20
408.5710144042969
 30
461.742919921875
 11
270.0
 21
408.5710144042969
 31
461.742919921875
  0
LINE
  8
0
 10
259.0
 20
392.85699462890625
 30
461.742919921875
 11
266.6119384765625
 21
392.85699462890625
 31
461.742919921875
  0
LINE
  8
0
 10
259.0
 20
377.14300537109375
 30
461.742919921875
 11
262.3880615234375
 21
377.14300537109375
 31
461.742919921875
  0
LINE
  8
0
 10
259.0
 20
372.3030090332031
 30
461.742919921875
 11
259.0
 21
361.4289855957031
 31
461.742919921875
  0
LINE
  8
0
 10
266.6119384765625
 20
424.2860107421875
 30
461.742919921875
 11
259.0
 21
424.2860107421875
 31
461.742919921875
  0
LINE
  8
0
 10
266.6119384765625
 20
424.2860107421875
 30
461.742919921875
 11
270.0
 21
424.2860107421875
 31
461.742919921875
  0
LINE
  8
0
 10
259.0
 20
408.57098388671875
 30
461.742919921875
 11
262.3880615234375
 21
408.5710144042969
 31
461.742919921875
  0
LINE
  8
0
 10
270.0
 20
397.697021484375
 30
461.742919921875
 11
270.0
 21
408.5710144042969
 31
461.742919921875
  0
LINE
  8
0
 10
270.0
 20
429.1260070800781
 30
461.742919921875
 11
270.0
 21
440.0
 31
461.7428894042969
  0
LINE
  8
0
 10
259.0
 20
429.1260070800781
 30
461.742919921875
 11
259.0
 21
440.0
 31
461.7428894042969
  0
LINE
  8
0
 10
270.0
 20
424.2860107421875
 30
461.742919921875
 11
270.0
 21
429.1260070800781
 31
461.742919921875
  0
LINE
  8
0
 10
259.0
 20
424.2860107421875
 30
461.742919921875
 11
259.0
 21
429.1260070800781
 31
461.742919921875
  0
LINE
  8
0
 10
518.0
 20
440.0
 30
461.742919921875
 11
270.0
 21
440.0
 31
461.7428894042969
  0
LINE
  8
0
 10
172.66700744628906
 20
419.4456787109375
 30
461.7428894042969
 11
172.66700744628906
 21
419.0472717285156
 31
461.742919921875
  0
LINE
  8
0
 10
172.66700744628906
 20
419.0472717285156
 30
461.742919921875
 11
172.66700744628906
 21
408.5710144042969
 31
461.7428894042969
  0
LINE
  8
0
 10
172.66700744628906
 20
419.4456787109375
 30
461.7428894042969
 11
172.66700744628906
 21
424.2860107421875
 31
461.7428894042969
  0
LINE
  8
0
 10
172.66700744628906
 20
377.14300537109375
 30
461.742919921875
 11
172.6669921875
 21
387.61920166015625
 31
461.742919921875
  0
LINE
  8
0
 10
172.6669921875
 20
387.61920166015625
 30
461.742919921875
 11
172.66700744628906
 21
388.0169982910156
 31
461.7428894042969
  0
LINE
  8
0
 10
172.66700744628906
 20
388.0169982910156
 30
461.7428894042969
 11
172.66700744628906
 21
392.85699462890625
 31
461.7428894042969
  0
LINE
  8
0
 10
172.66700744628906
 20
356.58868408203125
 30
461.7428894042969
 11
172.66700744628906
 21
361.4289855957031
 31
461.7428894042969
  0
LINE
  8
0
 10
172.66700744628906
 20
345.7139892578125
 30
461.7428894042969
 11
172.66700744628906
 21
356.19049072265625
 31
461.742919921875
  0
LINE
  8
0
 10
172.66700744628906
 20
356.58868408203125
 30
461.7428894042969
 11
172.66700744628906
 21
356.19049072265625
 31
461.742919921875
  0
LINE
  8
0
 10
172.66700744628906
 20
325.1600036621094
 30
461.7428894042969
 11
172.66700744628906
 21
330.0
 31
461.7428894042969
  0
LINE
  8
0
 10
172.66700744628906
 20
325.1600036621094
 30
461.7428894042969
 11
172.66700744628906
 21
314.2860107421875
 31
461.7428894042969
  0
LINE
  8
0
 10
172.66700744628906
 20
282.85699462890625
 30
461.742919921875
 11
172.66700744628906
 21
293.3330383300781
 31
461.742919921875
  0
LINE
  8
0
 10
172.66700744628906
 20
293.3330383300781
 30
461.742919921875
 11
172.66700744628906
 21
293.73101806640625
 31
461.7428894042969
  0
LINE
  8
0
 10
172.66700744628906
 20
293.73101806640625
 30
461.7428894042969
 11
172.66700744628906
 21
298.5710144042969
 31
461.742919921875
  0
LINE
  8
0
 10
172.66700744628906
 20
298.5710144042969
 30
461.742919921875
 11
176.05506896972656
 21
298.5710144042969
 31
461.742919921875
  0
LINE
  8
0
 10
172.66700744628906
 20
282.85699462890625
 30
461.742919921875
 11
180.27894592285156
 21
282.85699462890625
 31
461.742919921875
  0
LINE
  8
0
 10
172.66700744628906
 20
262.3030090332031
 30
461.742919921875
 11
172.66700744628906
 21
267.14300537109375
 31
461.742919921875
  0
LINE
  8
0
 10
176.05506896972656
 20
267.14300537109375
 30
461.742919921875
 11
183.66700744628906
 21
267.14300537109375
 31
461.742919921875
  0
LINE
  8
0
 10
172.66700744628906
 20
262.3030090332031
 30
461.742919921875
 11
172.66700744628906
 21
251.42901611328125
 31
461.742919921875
  0
LINE
  8
0
 10
172.66700744628906
 20
230.87399291992188
 30
461.742919921875
 11
172.66700744628906
 21
220.0
 31
461.742919921875
  0
LINE
  8
0
 10
172.66700744628906
 20
230.87399291992188
 30
461.742919921875
 11
172.66700744628906
 21
235.71400451660156
 31
461.742919921875
  0
LINE
  8
0
 10
172.66700744628906
 20
199.44569396972656
 30
461.742919921875
 11
172.66700744628906
 21
204.2860107421875
 31
461.742919921875
  0
LINE
  8
0
 10
172.66700744628906
 20
199.44569396972656
 30
461.742919921875
 11
172.66700744628906
 21
188.5709991455078
 31
461.742919921875
  0
LINE
  8
0
 10
172.66700744628906
 20
168.01699829101562
 30
461.742919921875
 11
172.66700744628906
 21
157.14300537109375
 31
461.742919921875
  0
LINE
  8
0
 10
172.66700744628906
 20
168.01699829101562
 30
461.742919921875
 11
172.66700744628906
 21
172.85699462890625
 31
461.742919921875
  0
LINE
  8
0
 10
172.66700744628906
 20
136.58868408203125
 30
461.7428894042969
 11
172.66700744628906
 21
141.4290008544922
 31
461.7428894042969
  0
LINE
  8
0
 10
172.66700744628906
 20
125.71399688720703
 30
461.742919921875
 11
172.66700744628906
 21
125.71424865722656
 31
461.742919921875
  0
LINE
  8
0
 10
172.66700744628906
 20
136.58868408203125
 30
461.7428894042969
 11
172.66700744628906
 21
125.71424865722656
 31
461.742919921875
  0
LINE
  8
0
 10
172.66700744628906
 20
105.15990447998047
 30
461.7428894042969
 11
172.6669921875
 21
104.76220703125
 31
461.742919921875
  0
LINE
  8
0
 10
172.6669921875
 20
104.76220703125
 30
461.742919921875
 11
172.66700744628906
 21
94.28569793701172
 31
461.742919921875
  0
LINE
  8
0
 10
172.66700744628906
 20
105.15990447998047
 30
461.7428894042969
 11
172.66700744628906
 21
110.0
 31
461.7428894042969
  0
LINE
  8
0
 10
172.66700744628906
 20
73.73130798339844
 30
461.7428894042969
 11
172.6669921875
 21
62.85725021362305
 31
461.742919921875
  0
LINE
  8
0
 10
172.6669921875
 20
62.85725021362305
 30
461.742919921875
 11
172.66700744628906
 21
62.85710144042969
 31
461.7428894042969
  0
LINE
  8
0
 10
172.66700744628906
 20
73.73130798339844
 30
461.7428894042969
 11
172.66700744628906
 21
78.57140350341797
 31
461.7428894042969
  0
LINE
  8
0
 10
172.66700744628906
 20
42.30280685424805
 30
461.7428894042969
 11
172.66700744628906
 21
47.14289855957031
 31
461.7428894042969
  0
LINE
  8
0
 10
172.66700744628906
 20
0.0
 30
461.7428894042969
 11
172.66700744628906
 21
4.840092182159424
 31
461.742919921875
  0
LINE
  8
0
 10
172.66700744628906
 20
4.840092182159424
 30
461.742919921875
 11
172.6669921875
 21
10.47622013092041
 31
461.742919921875
  0
LINE
  8
0
 10
172.6669921875
 20
10.47622013092041
 30
461.742919921875
 11
172.66700744628906
 21
15.714300155639648
 31
461.7428894042969
  0
LINE
  8
0
 10
172.66700744628906
 20
42.30280685424805
 30
461.7428894042969
 11
172.6669921875
 21
41.904815673828125
 31
461.742919921875
  0
LINE
  8
0
 10
172.6669921875
 20
41.904815673828125
 30
461.742919921875
 11
172.66700744628906
 21
31.428600311279297
 31
461.742919921875
  0
LINE
  8
0
 10
183.66700744628906
 20
381.9830017089844
 30
461.742919921875
 11
183.66700744628906
 21
377.14300537109375
 31
461.742919921875
  0
LINE
  8
0
 10
183.66700744628906
 20
345.7139892578125
 30
461.742919921875
 11
183.66700744628906
 21
350.5542907714844
 31
461.7428894042969
  0
LINE
  8
0
 10
183.6669921875
 20
314.2860107421875
 30
461.742919921875
 11
183.66700744628906
 21
319.1260070800781
 31
461.742919921875
  0
LINE
  8
0
 10
183.66700744628906
 20
319.1260070800781
 30
461.742919921875
 11
183.6669921875
 21
328.56378173828125
 31
461.742919921875
  0
LINE
  8
0
 10
183.6669921875
 20
328.56378173828125
 30
461.742919921875
 11
183.66700744628906
 21
330.0
 31
461.742919921875
  0
LINE
  8
0
 10
183.66700744628906
 20
287.6969909667969
 30
461.742919921875
 11
183.66700744628906
 21
298.5710144042969
 31
461.742919921875
  0
LINE
  8
0
 10
183.66700744628906
 20
282.85699462890625
 30
461.742919921875
 11
183.66700744628906
 21
283.9894104003906
 31
461.742919921875
  0
LINE
  8
0
 10
183.66700744628906
 20
287.6969909667969
 30
461.742919921875
 11
183.66700744628906
 21
283.9894104003906
 31
461.742919921875
  0
LINE
  8
0
 10
183.66700744628906
 20
256.2690124511719
 30
461.742919921875
 11
183.66700744628906
 21
251.42901611328125
 31
461.742919921875
  0
LINE
  8
0
 10
183.66700744628906
 20
224.83999633789062
 30
461.742919921875
 11
183.66700744628906
 21
220.0
 31
461.742919921875
  0
LINE
  8
0
 10
183.66700744628906
 20
193.41131591796875
 30
461.742919921875
 11
183.66700744628906
 21
188.57101440429688
 31
461.742919921875
  0
LINE
  8
0
 10
183.66700744628906
 20
161.98300170898438
 30
461.742919921875
 11
183.66700744628906
 21
157.14300537109375
 31
461.742919921875
  0
LINE
  8
0
 10
183.66700744628906
 20
125.71399688720703
 30
461.742919921875
 11
183.66700744628906
 21
130.55430603027344
 31
461.742919921875
  0
LINE
  8
0
 10
172.66700744628906
 20
78.57140350341797
 30
461.7428894042969
 11
176.05506896972656
 21
78.57140350341797
 31
461.742919921875
  0
LINE
  8
0
 10
183.66700744628906
 20
99.12579345703125
 30
461.742919921875
 11
183.66700744628906
 21
94.28569793701172
 31
461.742919921875
  0
LINE
  8
0
 10
183.66700744628906
 20
67.69719696044922
 30
461.742919921875
 11
183.6669921875
 21
66.86166381835938
 31
461.742919921875
  0
LINE
  8
0
 10
183.6669921875
 20
66.86166381835938
 30
461.742919921875
 11
183.66700744628906
 21
62.85710144042969
 31
461.7428894042969
  0
LINE
  8
0
 10
172.66700744628906
 20
62.85710144042969
 30
461.7428894042969
 11
180.27894592285156
 21
62.85710144042969
 31
461.7428894042969
  0
LINE
  8
0
 10
183.66700744628906
 20
62.85710144042969
 30
461.7428894042969
 11
180.27894592285156
 21
62.85710144042969
 31
461.7428894042969
  0
LINE
  8
0
 10
172.66700744628906
 20
47.14289855957031
 30
461.7428894042969
 11
176.05506896972656
 21
47.14289855957031
 31
461.742919921875
  0
LINE
  8
0
 10
172.66700744628906
 20
31.428600311279297
 30
461.742919921875
 11
180.27894592285156
 21
31.428600311279297
 31
461.742919921875
  0
LINE
  8
0
 10
183.66700744628906
 20
31.428600311279297
 30
461.742919921875
 11
183.66700744628906
 21
36.26869201660156
 31
461.742919921875
  0
LINE
  8
0
 10
180.27894592285156
 20
31.428600311279297
 30
461.742919921875
 11
183.66700744628906
 21
31.428600311279297
 31
461.742919921875
  0
LINE
  8
0
 10
176.05506896972656
 20
47.14289855957031
 30
461.742919921875
 11
183.66700744628906
 21
47.14289855957031
 31
461.742919921875
  0
LINE
  8
0
 10
183.66700744628906
 20
0.0
 30
461.742919921875
 11
183.66700744628906
 21
4.840092658996582
 31
461.742919921875
  0
LINE
  8
0
 10
172.66700744628906
 20
15.714300155639648
 30
461.7428894042969
 11
176.05506896972656
 21
15.714300155639648
 31
461.742919921875
  0
LINE
  8
0
 10
176.05506896972656
 20
15.714300155639648
 30
461.742919921875
 11
183.66700744628906
 21
15.714300155639648
 31
461.742919921875
  0
LINE
  8
0
 10
183.66700744628906
 20
424.2860107421875
 30
461.7428894042969
 11
183.66700744628906
 21
417.71246337890625
 31
461.742919921875
  0
LINE
  8
0
 10
183.66700744628906
 20
417.71246337890625
 30
461.742919921875
 11
183.66700744628906
 21
413.41131591796875
 31
461.742919921875
  0
LINE
  8
0
 10
172.66700744628906
 20
424.2860107421875
 30
461.7428894042969
 11
176.05508422851562
 21
424.2860107421875
 31
461.7428894042969
  0
LINE
  8
0
 10
183.66700744628906
 20
424.2860107421875
 30
461.7428894042969
 11
176.05508422851562
 21
424.2860107421875
 31
461.7428894042969
  0
LINE
  8
0
 10
180.27894592285156
 20
408.5710144042969
 30
461.7428894042969
 11
183.66700744628906
 21
408.57098388671875
 31
461.742919921875
  0
LINE
  8
0
 10
172.66700744628906
 20
408.5710144042969
 30
461.7428894042969
 11
180.27894592285156
 21
408.5710144042969
 31
461.7428894042969
  0
LINE
  8
0
 10
172.66700744628906
 20
392.85699462890625
 30
461.7428894042969
 11
176.05506896972656
 21
392.85699462890625
 31
461.7428894042969
  0
LINE
  8
0
 10
176.05506896972656
 20
392.85699462890625
 30
461.7428894042969
 11
183.66700744628906
 21
392.85699462890625
 31
461.7428894042969
  0
LINE
  8
0
 10
172.66700744628906
 20
377.14300537109375
 30
461.742919921875
 11
180.27894592285156
 21
377.14300537109375
 31
461.742919921875
  0
LINE
  8
0
 10
183.66700744628906
 20
377.14300537109375
 30
461.742919921875
 11
180.27894592285156
 21
377.14300537109375
 31
461.742919921875
  0
LINE
  8
0
 10
176.0550537109375
 20
361.428955078125
 30
461.742919921875
 11
183.6669921875
 21
361.428955078125
 31
461.742919921875
  0
LINE
  8
0
 10
172.66700744628906
 20
361.4289855957031
 30
461.7428894042969
 11
176.0550537109375
 21
361.428955078125
 31
461.742919921875
  0
LINE
  8
0
 10
172.66700744628906
 20
345.7139892578125
 30
461.7428894042969
 11
180.27894592285156
 21
345.7139892578125
 31
461.7428894042969
  0
LINE
  8
0
 10
183.66700744628906
 20
345.7139892578125
 30
461.742919921875
 11
180.27894592285156
 21
345.7139892578125
 31
461.7428894042969
  0
LINE
  8
0
 10
172.66700744628906
 20
330.0
 30
461.7428894042969
 11
176.05506896972656
 21
330.0
 31
461.742919921875
  0
LINE
  8
0
 10
176.05506896972656
 20
330.0
 30
461.742919921875
 11
181.29983520507812
 21
330.0
 31
461.742919921875
  0
LINE
  8
0
 10
183.66700744628906
 20
330.0
 30
461.742919921875
 11
181.29983520507812
 21
330.0
 31
461.742919921875
  0
LINE
  8
0
 10
172.66700744628906
 20
314.2860107421875
 30
461.7428894042969
 11
180.27894592285156
 21
314.2860107421875
 31
461.7428894042969
  0
LINE
  8
0
 10
183.6669921875
 20
314.2860107421875
 30
461.742919921875
 11
180.27894592285156
 21
314.2860107421875
 31
461.7428894042969
  0
LINE
  8
0
 10
176.05506896972656
 20
298.5710144042969
 30
461.742919921875
 11
183.66700744628906
 21
298.5710144042969
 31
461.742919921875
  0
LINE
  8
0
 10
180.27894592285156
 20
282.85699462890625
 30
461.742919921875
 11
183.66700744628906
 21
282.85699462890625
 31
461.742919921875
  0
LINE
  8
0
 10
172.66700744628906
 20
267.14300537109375
 30
461.742919921875
 11
176.05506896972656
 21
267.14300537109375
 31
461.742919921875
  0
LINE
  8
0
 10
183.66700744628906
 20
251.42901611328125
 30
461.742919921875
 11
180.27894592285156
 21
251.42901611328125
 31
461.742919921875
  0
LINE
  8
0
 10
172.66700744628906
 20
251.42901611328125
 30
461.742919921875
 11
180.27894592285156
 21
251.42901611328125
 31
461.742919921875
  0
LINE
  8
0
 10
172.66700744628906
 20
235.71400451660156
 30
461.742919921875
 11
176.05506896972656
 21
235.71401977539062
 31
461.742919921875
  0
LINE
  8
0
 10
176.05506896972656
 20
235.71401977539062
 30
461.742919921875
 11
183.66700744628906
 21
235.71401977539062
 31
461.742919921875
  0
LINE
  8
0
 10
172.66700744628906
 20
220.0
 30
461.742919921875
 11
180.27894592285156
 21
220.0
 31
461.742919921875
  0
LINE
  8
0
 10
183.66700744628906
 20
220.0
 30
461.742919921875
 11
180.27894592285156
 21
220.0
 31
461.742919921875
  0
LINE
  8
0
 10
172.66700744628906
 20
110.0
 30
461.7428894042969
 11
176.0550537109375
 21
110.0
 31
461.742919921875
  0
LINE
  8
0
 10
183.66700744628906
 20
94.28569793701172
 30
461.742919921875
 11
180.27894592285156
 21
94.28569793701172
 31
461.742919921875
  0
LINE
  8
0
 10
172.66700744628906
 20
94.28569793701172
 30
461.742919921875
 11
180.27894592285156
 21
94.28569793701172
 31
461.742919921875
  0
LINE
  8
0
 10
176.05506896972656
 20
78.57140350341797
 30
461.742919921875
 11
183.66700744628906
 21
78.57140350341797
 31
461.742919921875
  0
LINE
  8
0
 10
183.66700744628906
 20
4.840092658996582
 30
461.742919921875
 11
183.66700744628906
 21
15.714300155639648
 31
461.742919921875
  0
LINE
  8
0
 10
183.66700744628906
 20
413.41131591796875
 30
461.742919921875
 11
183.66700744628906
 21
408.57098388671875
 31
461.742919921875
  0
LINE
  8
0
 10
183.66700744628906
 20
381.9830017089844
 30
461.742919921875
 11
183.66700744628906
 21
392.85699462890625
 31
461.7428894042969
  0
LINE
  8
0
 10
183.6669921875
 20
361.428955078125
 30
461.742919921875
 11
183.66700744628906
 21
350.851318359375
 31
461.742919921875
  0
LINE
  8
0
 10
183.66700744628906
 20
350.5542907714844
 30
461.7428894042969
 11
183.66700744628906
 21
350.851318359375
 31
461.742919921875
  0
LINE
  8
0
 10
183.66700744628906
 20
267.14300537109375
 30
461.742919921875
 11
183.66700744628906
 21
256.2690124511719
 31
461.742919921875
  0
LINE
  8
0
 10
183.66700744628906
 20
224.83999633789062
 30
461.742919921875
 11
183.66700744628906
 21
235.71401977539062
 31
461.742919921875
  0
LINE
  8
0
 10
176.05506896972656
 20
204.2860107421875
 30
461.742919921875
 11
183.66700744628906
 21
204.2860107421875
 31
461.742919921875
  0
LINE
  8
0
 10
172.66700744628906
 20
204.2860107421875
 30
461.742919921875
 11
176.05506896972656
 21
204.2860107421875
 31
461.742919921875
  0
LINE
  8
0
 10
183.66700744628906
 20
193.41131591796875
 30
461.742919921875
 11
183.66700744628906
 21
204.2860107421875
 31
461.742919921875
  0
LINE
  8
0
 10
183.66700744628906
 20
188.57101440429688
 30
461.742919921875
 11
180.27894592285156
 21
188.5709991455078
 31
461.742919921875
  0
LINE
  8
0
 10
172.66700744628906
 20
188.5709991455078
 30
461.742919921875
 11
180.27894592285156
 21
188.5709991455078
 31
461.742919921875
  0
LINE
  8
0
 10
183.66700744628906
 20
161.98300170898438
 30
461.742919921875
 11
183.66700744628906
 21
172.85699462890625
 31
461.742919921875
  0
LINE
  8
0
 10
183.66700744628906
 20
172.85699462890625
 30
461.742919921875
 11
176.05506896972656
 21
172.85699462890625
 31
461.742919921875
  0
LINE
  8
0
 10
172.66700744628906
 20
172.85699462890625
 30
461.742919921875
 11
176.05506896972656
 21
172.85699462890625
 31
461.742919921875
  0
LINE
  8
0
 10
345.3330078125
 20
136.58868408203125
 30
461.7428894042969
 11
345.3330078125
 21
141.4290008544922
 31
461.7428894042969
  0
LINE
  8
0
 10
172.66700744628906
 20
157.14300537109375
 30
461.742919921875
 11
180.27894592285156
 21
157.14300537109375
 31
461.742919921875
  0
LINE
  8
0
 10
183.66700744628906
 20
157.14300537109375
 30
461.742919921875
 11
180.27894592285156
 21
157.14300537109375
 31
461.742919921875
  0
LINE
  8
0
 10
183.66700744628906
 20
130.55430603027344
 30
461.742919921875
 11
183.6669921875
 21
133.72305297851562
 31
461.742919921875
  0
LINE
  8
0
 10
183.6669921875
 20
133.72305297851562
 30
461.742919921875
 11
183.66700744628906
 21
141.4290008544922
 31
461.742919921875
  0
LINE
  8
0
 10
172.66700744628906
 20
125.71399688720703
 30
461.742919921875
 11
180.27894592285156
 21
125.71399688720703
 31
461.742919921875
  0
LINE
  8
0
 10
172.66700744628906
 20
141.4290008544922
 30
461.7428894042969
 11
176.05506896972656
 21
141.4290008544922
 31
461.742919921875
  0
LINE
  8
0
 10
183.66700744628906
 20
125.71399688720703
 30
461.742919921875
 11
180.27894592285156
 21
125.71399688720703
 31
461.742919921875
  0
LINE
  8
0
 10
183.66700744628906
 20
141.4290008544922
 30
461.742919921875
 11
176.05506896972656
 21
141.4290008544922
 31
461.742919921875
  0
LINE
  8
0
 10
345.3330078125
 20
78.57140350341797
 30
461.7428894042969
 11
345.3330078125
 21
76.58616638183594
 31
461.742919921875
  0
LINE
  8
0
 10
345.3330078125
 20
76.58616638183594
 30
461.742919921875
 11
345.3330078125
 21
73.73130798339844
 31
461.742919921875
  0
LINE
  8
0
 10
345.3330078125
 20
110.0
 30
461.742919921875
 11
345.3330078125
 21
105.15990447998047
 31
461.742919921875
  0
LINE
  8
0
 10
176.0550537109375
 20
110.0
 30
461.742919921875
 11
181.29983520507812
 21
110.00000762939453
 31
461.742919921875
  0
LINE
  8
0
 10
181.29983520507812
 20
110.00000762939453
 30
461.742919921875
 11
183.66700744628906
 21
110.0
 31
461.742919921875
  0
LINE
  8
0
 10
183.66700744628906
 20
67.69719696044922
 30
461.742919921875
 11
183.66700744628906
 21
78.57140350341797
 31
461.742919921875
  0
LINE
  8
0
 10
183.66700744628906
 20
99.12579345703125
 30
461.742919921875
 11
183.66700744628906
 21
110.0
 31
461.742919921875
  0
LINE
  8
0
 10
345.3330078125
 20
47.14289855957031
 30
461.742919921875
 11
345.3330078125
 21
42.30280303955078
 31
461.7428894042969
  0
LINE
  8
0
 10
0.0
 20
440.0
 30
461.742919921875
 11
259.0
 21
440.0
 31
461.7428894042969
  0
LINE
  8
0
 10
345.3330078125
 20
0.0
 30
461.7428894042969
 11
345.3330078125
 21
4.840092182159424
 31
461.742919921875
  0
LINE
  8
0
 10
183.66700744628906
 20
47.14289855957031
 30
461.742919921875
 11
183.6669921875
 21
44.57442092895508
 31
461.742919921875
  0
LINE
  8
0
 10
183.66700744628906
 20
36.26869201660156
 30
461.742919921875
 11
183.6669921875
 21
44.57442092895508
 31
461.742919921875
  0
LINE
  8
0
 10
345.3330078125
 20
408.5710144042969
 30
461.7428894042969
 11
345.3330078125
 21
419.4457092285156
 31
461.7428894042969
  0
LINE
  8
0
 10
345.3330078125
 20
419.4457092285156
 30
461.7428894042969
 11
345.3330078125
 21
424.2860107421875
 31
461.7428894042969
  0
LINE
  8
0
 10
345.3330078125
 20
377.14300537109375
 30
461.7428894042969
 11
345.3330078125
 21
385.2958984375
 31
461.742919921875
  0
LINE
  8
0
 10
345.3330078125
 20
385.2958984375
 30
461.742919921875
 11
345.3330078125
 21
388.0169982910156
 31
461.7428894042969
  0
LINE
  8
0
 10
345.3330078125
 20
388.0169982910156
 30
461.7428894042969
 11
345.3330078125
 21
392.85699462890625
 31
461.7428894042969
  0
LINE
  8
0
 10
345.3330078125
 20
356.58868408203125
 30
461.742919921875
 11
345.3330078125
 21
361.4289855957031
 31
461.742919921875
  0
LINE
  8
0
 10
345.3330078125
 20
356.58868408203125
 30
461.742919921875
 11
345.3330078125
 21
345.7139892578125
 31
461.7428894042969
  0
LINE
  8
0
 10
345.3330078125
 20
325.1600036621094
 30
461.7428894042969
 11
345.3330078125
 21
330.0
 31
461.7428894042969
  0
LINE
  8
0
 10
345.3330078125
 20
314.2860107421875
 30
461.742919921875
 11
345.3330078125
 21
319.650390625
 31
461.742919921875
  0
LINE
  8
0
 10
345.3330078125
 20
325.1600036621094
 30
461.7428894042969
 11
345.3330078125
 21
319.650390625
 31
461.742919921875
  0
LINE
  8
0
 10
345.3330078125
 20
293.73101806640625
 30
461.7428894042969
 11
345.3330078125
 21
282.85699462890625
 31
461.742919921875
  0
LINE
  8
0
 10
345.3330078125
 20
293.73101806640625
 30
461.7428894042969
 11
345.3330078125
 21
297.76837158203125
 31
461.742919921875
  0
LINE
  8
0
 10
345.3330078125
 20
297.76837158203125
 30
461.742919921875
 11
345.3330078125
 21
298.5710144042969
 31
461.7428894042969
  0
LINE
  8
0
 10
345.3330078125
 20
262.3030090332031
 30
461.742919921875
 11
345.3330078125
 21
251.42901611328125
 31
461.742919921875
  0
LINE
  8
0
 10
345.3330078125
 20
262.3030090332031
 30
461.742919921875
 11
345.3330078125
 21
267.14300537109375
 31
461.742919921875
  0
LINE
  8
0
 10
345.3330078125
 20
230.87399291992188
 30
461.742919921875
 11
345.3330078125
 21
235.71400451660156
 31
461.742919921875
  0
LINE
  8
0
 10
345.3330078125
 20
235.71400451660156
 30
461.742919921875
 11
348.7210693359375
 21
235.71401977539062
 31
461.742919921875
  0
LINE
  8
0
 10
348.7210693359375
 20
235.71401977539062
 30
461.742919921875
 11
356.3330078125
 21
235.71401977539062
 31
461.742919921875
  0
LINE
  8
0
 10
345.3330078125
 20
230.87399291992188
 30
461.742919921875
 11
345.3330078125
 21
220.0
 31
461.742919921875
  0
LINE
  8
0
 10
352.9449462890625
 20
220.0
 30
461.742919921875
 11
356.3330078125
 21
220.0
 31
461.742919921875
  0
LINE
  8
0
 10
345.3330078125
 20
220.0
 30
461.742919921875
 11
352.9449462890625
 21
220.0
 31
461.742919921875
  0
LINE
  8
0
 10
345.3330078125
 20
199.44569396972656
 30
461.742919921875
 11
345.3330078125
 21
204.2860107421875
 31
461.742919921875
  0
LINE
  8
0
 10
345.3330078125
 20
204.2860107421875
 30
461.742919921875
 11
348.7210693359375
 21
204.2860107421875
 31
461.742919921875
  0
LINE
  8
0
 10
345.3330078125
 20
199.44569396972656
 30
461.742919921875
 11
345.3330078125
 21
188.5709991455078
 31
461.742919921875
  0
LINE
  8
0
 10
348.7210693359375
 20
204.2860107421875
 30
461.742919921875
 11
356.3330078125
 21
204.2860107421875
 31
461.742919921875
  0
LINE
  8
0
 10
345.3330078125
 20
188.5709991455078
 30
461.742919921875
 11
352.9449462890625
 21
188.5709991455078
 31
461.742919921875
  0
LINE
  8
0
 10
352.9449462890625
 20
188.5709991455078
 30
461.742919921875
 11
356.3330078125
 21
188.57101440429688
 31
461.742919921875
  0
LINE
  8
0
 10
345.3330078125
 20
168.01699829101562
 30
461.742919921875
 11
345.3330078125
 21
157.14300537109375
 31
461.742919921875
  0
LINE
  8
0
 10
348.7210693359375
 20
172.85699462890625
 30
461.742919921875
 11
345.3330078125
 21
172.85699462890625
 31
461.742919921875
  0
LINE
  8
0
 10
348.7210693359375
 20
172.85699462890625
 30
461.742919921875
 11
356.3330078125
 21
172.85699462890625
 31
461.742919921875
  0
LINE
  8
0
 10
345.3330078125
 20
168.01699829101562
 30
461.742919921875
 11
345.3330078125
 21
172.85699462890625
 31
461.742919921875
  0
LINE
  8
0
 10
345.3330078125
 20
136.58868408203125
 30
461.7428894042969
 11
345.3330078125
 21
125.71399688720703
 31
461.7428894042969
  0
LINE
  8
0
 10
345.3330078125
 20
105.15990447998047
 30
461.742919921875
 11
345.3330078125
 21
98.46822357177734
 31
461.742919921875
  0
LINE
  8
0
 10
345.3330078125
 20
98.46822357177734
 30
461.742919921875
 11
345.3330078125
 21
94.28569030761719
 31
461.7428894042969
  0
LINE
  8
0
 10
345.3330078125
 20
73.73130798339844
 30
461.742919921875
 11
345.3330078125
 21
62.85710144042969
 31
461.7428894042969
  0
LINE
  8
0
 10
345.3330078125
 20
42.30280303955078
 30
461.7428894042969
 11
345.3330078125
 21
32.822669982910156
 31
461.742919921875
  0
LINE
  8
0
 10
345.3330078125
 20
32.822669982910156
 30
461.742919921875
 11
345.3330078125
 21
31.428600311279297
 31
461.742919921875
  0
LINE
  8
0
 10
345.3330078125
 20
10.940892219543457
 30
461.742919921875
 11
345.3330078125
 21
15.714300155639648
 31
461.7428894042969
  0
LINE
  8
0
 10
345.3330078125
 20
4.840092182159424
 30
461.742919921875
 11
345.3330078125
 21
10.940892219543457
 31
461.742919921875
  0
LINE
  8
0
 10
345.3330078125
 20
424.2860107421875
 30
461.7428894042969
 11
348.7210693359375
 21
424.2860107421875
 31
461.7428894042969
  0
LINE
  8
0
 10
356.3330078125
 20
408.5710144042969
 30
461.742919921875
 11
356.3330078125
 21
409.2682800292969
 31
461.742919921875
  0
LINE
  8
0
 10
356.3330078125
 20
409.2682800292969
 30
461.742919921875
 11
356.3330078125
 21
413.41131591796875
 31
461.7428894042969
  0
LINE
  8
0
 10
356.3330078125
 20
413.41131591796875
 30
461.7428894042969
 11
356.3330078125
 21
424.2860107421875
 31
461.7428894042969
  0
LINE
  8
0
 10
348.7210693359375
 20
424.2860107421875
 30
461.7428894042969
 11
356.3330078125
 21
424.2860107421875
 31
461.7428894042969
  0
LINE
  8
0
 10
352.9449462890625
 20
408.57098388671875
 30
461.742919921875
 11
352.66497802734375
 21
408.5710144042969
 31
461.742919921875
  0
LINE
  8
0
 10
345.3330078125
 20
408.5710144042969
 30
461.7428894042969
 11
352.66497802734375
 21
408.5710144042969
 31
461.742919921875
  0
LINE
  8
0
 10
356.3330078125
 20
408.5710144042969
 30
461.742919921875
 11
352.9449462890625
 21
408.57098388671875
 31
461.742919921875
  0
LINE
  8
0
 10
356.3330078125
 20
392.85699462890625
 30
461.742919921875
 11
356.3330078125
 21
388.7808837890625
 31
461.742919921875
  0
LINE
  8
0
 10
356.3330078125
 20
381.9830017089844
 30
461.742919921875
 11
356.3330078125
 21
388.7808837890625
 31
461.742919921875
  0
LINE
  8
0
 10
356.3330078125
 20
392.85699462890625
 30
461.742919921875
 11
348.7210693359375
 21
392.85699462890625
 31
461.742919921875
  0
LINE
  8
0
 10
345.3330078125
 20
392.85699462890625
 30
461.7428894042969
 11
348.7210693359375
 21
392.85699462890625
 31
461.742919921875
  0
LINE
  8
0
 10
356.3330078125
 20
381.9830017089844
 30
461.742919921875
 11
356.3330078125
 21
377.14300537109375
 31
461.742919921875
  0
LINE
  8
0
 10
345.3330078125
 20
377.14300537109375
 30
461.7428894042969
 11
352.9449462890625
 21
377.14300537109375
 31
461.742919921875
  0
LINE
  8
0
 10
356.3330078125
 20
350.5543212890625
 30
461.7428894042969
 11
356.3330078125
 21
361.4289855957031
 31
461.742919921875
  0
LINE
  8
0
 10
356.3330078125
 20
319.1260070800781
 30
461.742919921875
 11
356.3330078125
 21
327.31744384765625
 31
461.742919921875
  0
LINE
  8
0
 10
356.3330078125
 20
327.31744384765625
 30
461.742919921875
 11
356.3330078125
 21
330.0
 31
461.742919921875
  0
LINE
  8
0
 10
356.3330078125
 20
298.5710144042969
 30
461.742919921875
 11
356.3330078125
 21
287.697021484375
 31
461.742919921875
  0
LINE
  8
0
 10
356.3330078125
 20
256.2690124511719
 30
461.742919921875
 11
356.3330078125
 21
251.42901611328125
 31
461.742919921875
  0
LINE
  8
0
 10
356.3330078125
 20
256.2690124511719
 30
461.742919921875
 11
356.3330078125
 21
267.14300537109375
 31
461.742919921875
  0
LINE
  8
0
 10
356.3330078125
 20
235.71401977539062
 30
461.742919921875
 11
356.3330078125
 21
224.83999633789062
 31
461.742919921875
  0
LINE
  8
0
 10
356.3330078125
 20
188.57101440429688
 30
461.742919921875
 11
356.3330078125
 21
193.41131591796875
 31
461.742919921875
  0
LINE
  8
0
 10
356.3330078125
 20
204.2860107421875
 30
461.742919921875
 11
356.3330078125
 21
193.41131591796875
 31
461.742919921875
  0
LINE
  8
0
 10
356.3330078125
 20
172.85699462890625
 30
461.742919921875
 11
356.3330078125
 21
161.98300170898438
 31
461.742919921875
  0
LINE
  8
0
 10
356.3330078125
 20
161.98300170898438
 30
461.742919921875
 11
356.3330078125
 21
157.14300537109375
 31
461.742919921875
  0
LINE
  8
0
 10
356.3330078125
 20
141.42898559570312
 30
461.742919921875
 11
356.3330078125
 21
133.17059326171875
 31
461.742919921875
  0
LINE
  8
0
 10
356.3330078125
 20
133.17059326171875
 30
461.742919921875
 11
356.3330078125
 21
130.55430603027344
 31
461.742919921875
  0
LINE
  8
0
 10
356.3330078125
 20
130.55430603027344
 30
461.742919921875
 11
356.3330078125
 21
125.71399688720703
 31
461.742919921875
  0
LINE
  8
0
 10
356.3330078125
 20
110.0
 30
461.742919921875
 11
356.3330078125
 21
99.12579345703125
 31
461.7428894042969
  0
LINE
  8
0
 10
356.3330078125
 20
99.12579345703125
 30
461.7428894042969
 11
356.3330078125
 21
94.28569793701172
 31
461.742919921875
  0
LINE
  8
0
 10
356.3330078125
 20
67.69719696044922
 30
461.742919921875
 11
356.3330078125
 21
62.85710525512695
 31
461.742919921875
  0
LINE
  8
0
 10
356.3330078125
 20
31.428600311279297
 30
461.742919921875
 11
356.3330078125
 21
36.26869201660156
 31
461.7428894042969
  0
LINE
  8
0
 10
356.3330078125
 20
0.0
 30
461.742919921875
 11
356.3330078125
 21
4.840092658996582
 31
461.742919921875
  0
LINE
  8
0
 10
356.3330078125
 20
10.243886947631836
 30
461.742919921875
 11
356.3330078125
 21
15.714301109313965
 31
461.742919921875
  0
LINE
  8
0
 10
356.3330078125
 20
4.840092658996582
 30
461.742919921875
 11
356.3330078125
 21
10.243886947631836
 31
461.742919921875
  0
LINE
  8
0
 10
356.3330078125
 20
36.26869201660156
 30
461.7428894042969
 11
356.3330078125
 21
47.14289855957031
 31
461.742919921875
  0
LINE
  8
0
 10
356.3330078125
 20
78.57140350341797
 30
461.742919921875
 11
356.3330078125
 21
71.7071304321289
 31
461.742919921875
  0
LINE
  8
0
 10
356.3330078125
 20
67.69719696044922
 30
461.742919921875
 11
356.3330078125
 21
71.7071304321289
 31
461.742919921875
  0
LINE
  8
0
 10
356.3330078125
 20
377.14300537109375
 30
461.742919921875
 11
352.9449462890625
 21
377.14300537109375
 31
461.742919921875
  0
LINE
  8
0
 10
345.3330078125
 20
361.4289855957031
 30
461.742919921875
 11
348.7210693359375
 21
361.4289855957031
 31
461.742919921875
  0
LINE
  8
0
 10
356.3330078125
 20
345.7139892578125
 30
461.742919921875
 11
356.3330078125
 21
347.80487060546875
 31
461.742919921875
  0
LINE
  8
0
 10
356.3330078125
 20
350.5543212890625
 30
461.7428894042969
 11
356.3330078125
 21
347.80487060546875
 31
461.742919921875
  0
LINE
  8
0
 10
356.3330078125
 20
361.4289855957031
 30
461.742919921875
 11
348.7210693359375
 21
361.4289855957031
 31
461.742919921875
  0
LINE
  8
0
 10
356.3330078125
 20
345.7139892578125
 30
461.742919921875
 11
352.9449462890625
 21
345.7139892578125
 31
461.742919921875
  0
LINE
  8
0
 10
352.9449462890625
 20
345.7139892578125
 30
461.742919921875
 11
352.6666259765625
 21
345.7139892578125
 31
461.742919921875
  0
LINE
  8
0
 10
345.3330078125
 20
345.7139892578125
 30
461.7428894042969
 11
352.6666259765625
 21
345.7139892578125
 31
461.742919921875
  0
LINE
  8
0
 10
356.3330078125
 20
319.1260070800781
 30
461.742919921875
 11
356.3330078125
 21
314.2860107421875
 31
461.742919921875
  0
LINE
  8
0
 10
345.3330078125
 20
330.0
 30
461.7428894042969
 11
348.7210693359375
 21
330.0
 31
461.7428894042969
  0
LINE
  8
0
 10
356.3330078125
 20
330.0
 30
461.742919921875
 11
348.7210693359375
 21
330.0
 31
461.7428894042969
  0
LINE
  8
0
 10
356.3330078125
 20
314.2860107421875
 30
461.742919921875
 11
352.9449462890625
 21
314.2860107421875
 31
461.7428894042969
  0
LINE
  8
0
 10
345.3330078125
 20
314.2860107421875
 30
461.742919921875
 11
352.9449462890625
 21
314.2860107421875
 31
461.7428894042969
  0
LINE
  8
0
 10
348.7210693359375
 20
298.5710144042969
 30
461.742919921875
 11
346.307373046875
 21
298.57098388671875
 31
461.742919921875
  0
LINE
  8
0
 10
345.3330078125
 20
298.5710144042969
 30
461.7428894042969
 11
346.307373046875
 21
298.57098388671875
 31
461.742919921875
  0
LINE
  8
0
 10
356.3330078125
 20
298.5710144042969
 30
461.742919921875
 11
348.7210693359375
 21
298.5710144042969
 31
461.742919921875
  0
LINE
  8
0
 10
356.3330078125
 20
287.697021484375
 30
461.742919921875
 11
356.3330078125
 21
282.85699462890625
 31
461.742919921875
  0
LINE
  8
0
 10
345.3330078125
 20
282.85699462890625
 30
461.742919921875
 11
352.9449462890625
 21
282.85699462890625
 31
461.742919921875
  0
LINE
  8
0
 10
356.3330078125
 20
282.85699462890625
 30
461.742919921875
 11
352.9449462890625
 21
282.85699462890625
 31
461.742919921875
  0
LINE
  8
0
 10
345.3330078125
 20
267.14300537109375
 30
461.742919921875
 11
348.7210693359375
 21
267.14300537109375
 31
461.742919921875
  0
LINE
  8
0
 10
356.3330078125
 20
267.14300537109375
 30
461.742919921875
 11
348.7210693359375
 21
267.14300537109375
 31
461.742919921875
  0
LINE
  8
0
 10
356.3330078125
 20
251.42901611328125
 30
461.742919921875
 11
352.9449462890625
 21
251.42901611328125
 31
461.742919921875
  0
LINE
  8
0
 10
345.3330078125
 20
251.42901611328125
 30
461.742919921875
 11
352.9449462890625
 21
251.42901611328125
 31
461.742919921875
  0
LINE
  8
0
 10
356.3330078125
 20
220.0
 30
461.742919921875
 11
356.3330078125
 21
224.83999633789062
 31
461.742919921875
  0
LINE
  8
0
 10
345.3330078125
 20
157.14300537109375
 30
461.742919921875
 11
352.9449462890625
 21
157.14300537109375
 31
461.742919921875
  0
LINE
  8
0
 10
356.3330078125
 20
157.14300537109375
 30
461.742919921875
 11
352.9449462890625
 21
157.14300537109375
 31
461.742919921875
  0
LINE
  8
0
 10
356.3330078125
 20
141.42898559570312
 30
461.742919921875
 11
348.7210693359375
 21
141.4290008544922
 31
461.742919921875
  0
LINE
  8
0
 10
348.7210693359375
 20
141.4290008544922
 30
461.742919921875
 11
346.3074035644531
 21
141.42901611328125
 31
461.742919921875
  0
LINE
  8
0
 10
345.3330078125
 20
141.4290008544922
 30
461.7428894042969
 11
346.3074035644531
 21
141.42901611328125
 31
461.742919921875
  0
LINE
  8
0
 10
345.3330078125
 20
125.71399688720703
 30
461.7428894042969
 11
352.9449462890625
 21
125.71399688720703
 31
461.7428894042969
  0
LINE
  8
0
 10
356.3330078125
 20
125.71399688720703
 30
461.742919921875
 11
352.9449462890625
 21
125.71399688720703
 31
461.7428894042969
  0
LINE
  8
0
 10
356.3330078125
 20
110.0
 30
461.742919921875
 11
348.7210693359375
 21
110.0
 31
461.742919921875
  0
LINE
  8
0
 10
345.3330078125
 20
110.0
 30
461.742919921875
 11
348.7210693359375
 21
110.0
 31
461.742919921875
  0
LINE
  8
0
 10
356.3330078125
 20
94.28569793701172
 30
461.742919921875
 11
352.9449462890625
 21
94.28569793701172
 31
461.7428894042969
  0
LINE
  8
0
 10
352.9449462890625
 20
94.28569793701172
 30
461.7428894042969
 11
352.66717529296875
 21
94.28569793701172
 31
461.742919921875
  0
LINE
  8
0
 10
345.3330078125
 20
94.28569030761719
 30
461.7428894042969
 11
352.66717529296875
 21
94.28569793701172
 31
461.742919921875
  0
LINE
  8
0
 10
356.3330078125
 20
78.57140350341797
 30
461.742919921875
 11
348.7210693359375
 21
78.57140350341797
 31
461.742919921875
  0
LINE
  8
0
 10
345.3330078125
 20
78.57140350341797
 30
461.7428894042969
 11
348.7210693359375
 21
78.57140350341797
 31
461.742919921875
  0
LINE
  8
0
 10
345.3330078125
 20
15.714300155639648
 30
461.7428894042969
 11
348.7210693359375
 21
15.714301109313965
 31
461.742919921875
  0
LINE
  8
0
 10
345.3330078125
 20
62.85710144042969
 30
461.7428894042969
 11
352.9449462890625
 21
62.85710144042969
 31
461.742919921875
  0
LINE
  8
0
 10
356.3330078125
 20
62.85710525512695
 30
461.742919921875
 11
352.9449462890625
 21
62.85710144042969
 31
461.742919921875
  0
LINE
  8
0
 10
345.3330078125
 20
47.14289855957031
 30
461.742919921875
 11
348.7210693359375
 21
47.14289855957031
 31
461.742919921875
  0
LINE
  8
0
 10
356.3330078125
 20
47.14289855957031
 30
461.742919921875
 11
348.7210693359375
 21
47.14289855957031
 31
461.742919921875
  0
LINE
  8
0
 10
352.9449462890625
 20
31.428600311279297
 30
461.7428894042969
 11
352.66668701171875
 21
31.42859649658203
 31
461.742919921875
  0
LINE
  8
0
 10
345.3330078125
 20
31.428600311279297
 30
461.742919921875
 11
352.66668701171875
 21
31.42859649658203
 31
461.742919921875
  0
LINE
  8
0
 10
356.3330078125
 20
31.428600311279297
 30
461.742919921875
 11
352.9449462890625
 21
31.428600311279297
 31
461.7428894042969
  0
LINE
  8
0
 10
356.3330078125
 20
15.714301109313965
 30
461.742919921875
 11
348.7210693359375
 21
15.714301109313965
 31
461.742919921875
  0
LINE
  8
0
 10
518.0
 20
0.0
 30
461.742919921875
 11
356.3330078125
 21
0.0
 31
461.742919921875
  0
LINE
  8
0
 10
0.0
 20
0.0
 30
461.742919921875
 11
172.66700744628906
 21
0.0
 31
461.7428894042969
  0
LINE
  8
0
 10
183.66700744628906
 20
0.0
 30
461.742919921875
 11
345.3330078125
 21
0.0
 31
461.7428894042969
  0
ENDSEC
  0
EOF
