  0
SECTION
  2
HEADER
  9
$ACADVER
  1
AC1009
  9
$INSBASE
 10
0.0
 20
0.0
 30
0.0
  9
$EXTMIN
 10
0.0
 20
0.0
 30
0.0
  9
$EXTMAX
 10
0.0
 20
0.0
 30
0.0
  0
ENDSEC
  0
SECTION
  2
TABLES
  0
TABLE
  2
VPORT
 70
1
  0
VPORT
  2
*ACTIVE
 70
0
 10
0.0
 20
0.0
 11
1.0
 21
1.0
 12
-5.0
 22
1.0
 13
0.0
 23
0.0
 14
0.1
 24
0.1
 15
0.1
 25
0.1
 16
0.0
 26
0.0
 36
1.0
 17
0.0
 27
0.0
 37
0.0
 40
10.0
 41
1.0
 42
50.0
 43
0.0
 44
0.0
 50
0.0
 51
0.0
 71
0
 72
100
 73
1
 74
1
 75
0
 76
0
 77
0
 78
0
  0
ENDTAB
  0
TABLE
  2
LTYPE
 70
8
  0
LTYPE
  2
CONTINUOUS
 70
0
  3
Solid line
 72
65
 73
0
 40
0.0
  0
LTYPE
  2
DOT
 70
0
  3
. . . . . . .
 72
65
 73
2
 40
0.25
 49
0.0
 49
-0.25
  0
LTYPE
  2
DASHED
 70
0
  3
__ __ __ __ __
 72
65
 73
2
 40
0.8
 49
0.5
 49
-0.3
  0
LTYPE
  2
DASHDOT
 70
0
  3
__ . __ . __ .
 72
65
 73
4
 40
1.0
 49
0.5
 49
-0.25
 49
0.0
 49
-0.25
  0
LTYPE
  2
DIVIDE
 70
0
  3
____ . . ____ . . 
 72
65
 73
6
 40
1.25
 49
0.5
 49
-0.25
 49
0.0
 49
-0.25
 49
0.0
 49
-0.25
  0
LTYPE
  2
BORDER
 70
0
  3
__ __ . __ __ . 
 72
65
 73
6
 40
1.75
 49
0.5
 49
-0.25
 49
0.5
 49
-0.25
 49
0.0
 49
-0.25
  0
LTYPE
  2
HIDDEN
 70
0
  3
__ __ __ __ __
 72
65
 73
2
 40
0.4
 49
0.25
 49
-0.25
  0
LTYPE
  2
CENTER
 70
0
  3
____ _ ____ _ __
 72
65
 73
4
 40
2.0
 49
1.25
 49
-0.25
 49
0.25
 49
-0.25
  0
ENDTAB
  0
TABLE
  2
LAYER
 70
1
  0
LAYER
  2
PYDXF
 70
64
 62
7
  6
continuous
  0
ENDTAB
  0
TABLE
  2
STYLE
 70
1
  0
STYLE
  2
STANDARD
 70
0
 40
0
 41
1.0
 50
0.0
 71
0
 42
1
 3
ARIAL.TTF
 4

  0
ENDTAB
  0
TABLE
  2
VIEW
 70
1
  0
VIEW
  2
BF_TOPVIEW
 70
0
 40
120.0
 10
0.0
 20
0.0
 41
200.0
 11
0.0
 21
0.0
 31
1.0
 12
0.0
 22
0.0
 32
0.0
 42
50.0
 43
0.0
 44
0.0
 50
0.0
 71
0
  0
ENDTAB
  0
ENDSEC
  0
SECTION
  2
BLOCKS
  0
ENDSEC
  0
SECTION
  2
ENTITIES
  0
LINE
  8
0
 10
155.0
 20
220.0
 30
-1.1702174560923595e-05
 11
155.0
 21
440.0
 31
-1.1702174560923595e-05
  0
LINE
  8
0
 10
144.0
 20
440.0
 30
-1.08716976683354e-05
 11
144.0
 21
220.0
 31
-1.08716976683354e-05
  0
LINE
  8
0
 10
155.0
 20
220.0
 30
-1.1702174560923595e-05
 11
144.0
 21
220.0
 31
-1.08716976683354e-05
  0
LINE
  8
0
 10
144.0
 20
440.0
 30
-1.08716976683354e-05
 11
0.0
 21
440.0
 31
0.0
  0
LINE
  8
0
 10
299.0
 20
220.0
 30
-2.2573873138753697e-05
 11
310.0
 21
220.0
 31
-2.340434912184719e-05
  0
LINE
  8
0
 10
299.0
 20
204.28599548339844
 30
-2.2573873138753697e-05
 11
299.0
 21
188.5709991455078
 31
-2.2573873138753697e-05
  0
LINE
  8
0
 10
299.0
 20
188.5709991455078
 30
-2.2573873138753697e-05
 11
310.0
 21
188.5709991455078
 31
-2.340434912184719e-05
  0
LINE
  8
0
 10
299.0
 20
172.85699462890625
 30
-2.2573873138753697e-05
 11
299.0
 21
157.14300537109375
 31
-2.2573873138753697e-05
  0
LINE
  8
0
 10
299.0
 20
157.14300537109375
 30
-2.2573873138753697e-05
 11
310.0
 21
157.14300537109375
 31
-2.340434912184719e-05
  0
LINE
  8
0
 10
299.0
 20
141.4290008544922
 30
-2.2573873138753697e-05
 11
299.0
 21
125.71399688720703
 31
-2.2573873138753697e-05
  0
LINE
  8
0
 10
299.0
 20
125.71399688720703
 30
-2.2573873138753697e-05
 11
310.0
 21
125.71399688720703
 31
-2.340434912184719e-05
  0
LINE
  8
0
 10
299.0
 20
110.0
 30
-2.2573873138753697e-05
 11
299.0
 21
94.28569793701172
 31
-2.2573873138753697e-05
  0
LINE
  8
0
 10
299.0
 20
94.28569793701172
 30
-2.2573873138753697e-05
 11
310.0
 21
94.28569793701172
 31
-2.340434912184719e-05
  0
LINE
  8
0
 10
299.0
 20
78.57140350341797
 30
-2.2573873138753697e-05
 11
299.0
 21
62.85710144042969
 31
-2.2573873138753697e-05
  0
LINE
  8
0
 10
299.0
 20
62.85710144042969
 30
-2.2573873138753697e-05
 11
310.0
 21
62.85710144042969
 31
-2.340434912184719e-05
  0
LINE
  8
0
 10
299.0
 20
31.428600311279297
 30
-2.2573873138753697e-05
 11
310.0
 21
31.428600311279297
 31
-2.340434912184719e-05
  0
LINE
  8
0
 10
299.0
 20
47.14289855957031
 30
-2.2573873138753697e-05
 11
299.0
 21
31.428600311279297
 31
-2.2573873138753697e-05
  0
LINE
  8
0
 10
0.0
 20
440.0
 30
0.0
 11
0.0
 21
0.0
 31
0.0
  0
LINE
  8
0
 10
299.0
 20
15.714300155639648
 30
-2.2573873138753697e-05
 11
299.0
 21
0.0
 31
-2.2573873138753697e-05
  0
LINE
  8
0
 10
0.0
 20
0.0
 30
0.0
 11
299.0
 21
0.0
 31
-2.2573873138753697e-05
  0
LINE
  8
0
 10
155.0
 20
440.0
 30
-1.1702174560923595e-05
 11
310.0
 21
440.0
 31
-2.340434912184719e-05
  0
LINE
  8
0
 10
299.0
 20
424.2860107421875
 30
-2.2573873138753697e-05
 11
299.0
 21
408.5710144042969
 31
-2.2573873138753697e-05
  0
LINE
  8
0
 10
299.0
 20
408.5710144042969
 30
-2.2573873138753697e-05
 11
310.0
 21
408.5710144042969
 31
-2.340434912184719e-05
  0
LINE
  8
0
 10
299.0
 20
392.85699462890625
 30
-2.2573873138753697e-05
 11
299.0
 21
377.14300537109375
 31
-2.2573873138753697e-05
  0
LINE
  8
0
 10
299.0
 20
377.14300537109375
 30
-2.2573873138753697e-05
 11
310.0
 21
377.14300537109375
 31
-2.340434912184719e-05
  0
LINE
  8
0
 10
299.0
 20
361.4289855957031
 30
-2.2573873138753697e-05
 11
299.0
 21
345.7139892578125
 31
-2.2573873138753697e-05
  0
LINE
  8
0
 10
299.0
 20
345.7139892578125
 30
-2.2573873138753697e-05
 11
310.0
 21
345.7139892578125
 31
-2.340434912184719e-05
  0
LINE
  8
0
 10
299.0
 20
314.2860107421875
 30
-2.2573873138753697e-05
 11
310.0
 21
314.2860107421875
 31
-2.340434912184719e-05
  0
LINE
  8
0
 10
299.0
 20
330.0
 30
-2.2573873138753697e-05
 11
299.0
 21
314.2860107421875
 31
-2.2573873138753697e-05
  0
LINE
  8
0
 10
299.0
 20
282.85699462890625
 30
-2.2573873138753697e-05
 11
310.0
 21
282.85699462890625
 31
-2.340434912184719e-05
  0
LINE
  8
0
 10
299.0
 20
298.5710144042969
 30
-2.2573873138753697e-05
 11
299.0
 21
282.85699462890625
 31
-2.2573873138753697e-05
  0
LINE
  8
0
 10
299.0
 20
251.4290008544922
 30
-2.2573873138753697e-05
 11
310.0
 21
251.4290008544922
 31
-2.340434912184719e-05
  0
LINE
  8
0
 10
299.0
 20
267.14300537109375
 30
-2.2573873138753697e-05
 11
299.0
 21
251.4290008544922
 31
-2.2573873138753697e-05
  0
LINE
  8
0
 10
299.0
 20
220.0
 30
-2.2573873138753697e-05
 11
299.0
 21
235.71400451660156
 31
-2.2573873138753697e-05
  0
LINE
  8
0
 10
310.0
 20
440.0
 30
-2.340434912184719e-05
 11
310.0
 21
424.2860107421875
 31
-2.340434912184719e-05
  0
LINE
  8
0
 10
299.0
 20
424.2860107421875
 30
-2.2573873138753697e-05
 11
310.0
 21
424.2860107421875
 31
-2.340434912184719e-05
  0
LINE
  8
0
 10
310.0
 20
408.5710144042969
 30
-2.340434912184719e-05
 11
310.0
 21
392.85699462890625
 31
-2.340434912184719e-05
  0
LINE
  8
0
 10
299.0
 20
392.85699462890625
 30
-2.2573873138753697e-05
 11
310.0
 21
392.85699462890625
 31
-2.340434912184719e-05
  0
LINE
  8
0
 10
310.0
 20
377.14300537109375
 30
-2.340434912184719e-05
 11
310.0
 21
361.4289855957031
 31
-2.340434912184719e-05
  0
LINE
  8
0
 10
299.0
 20
361.4289855957031
 30
-2.2573873138753697e-05
 11
310.0
 21
361.4289855957031
 31
-2.340434912184719e-05
  0
LINE
  8
0
 10
310.0
 20
345.7139892578125
 30
-2.340434912184719e-05
 11
310.0
 21
330.0
 31
-2.340434912184719e-05
  0
LINE
  8
0
 10
299.0
 20
330.0
 30
-2.2573873138753697e-05
 11
310.0
 21
330.0
 31
-2.340434912184719e-05
  0
LINE
  8
0
 10
310.0
 20
314.2860107421875
 30
-2.340434912184719e-05
 11
310.0
 21
298.5710144042969
 31
-2.340434912184719e-05
  0
LINE
  8
0
 10
299.0
 20
298.5710144042969
 30
-2.2573873138753697e-05
 11
310.0
 21
298.5710144042969
 31
-2.340434912184719e-05
  0
LINE
  8
0
 10
310.0
 20
282.85699462890625
 30
-2.340434912184719e-05
 11
310.0
 21
267.14300537109375
 31
-2.340434912184719e-05
  0
LINE
  8
0
 10
299.0
 20
267.14300537109375
 30
-2.2573873138753697e-05
 11
310.0
 21
267.14300537109375
 31
-2.340434912184719e-05
  0
LINE
  8
0
 10
310.0
 20
251.4290008544922
 30
-2.340434912184719e-05
 11
310.0
 21
235.71400451660156
 31
-2.340434912184719e-05
  0
LINE
  8
0
 10
299.0
 20
235.71400451660156
 30
-2.2573873138753697e-05
 11
310.0
 21
235.71400451660156
 31
-2.340434912184719e-05
  0
LINE
  8
0
 10
310.0
 20
220.0
 30
-2.340434912184719e-05
 11
310.0
 21
204.28599548339844
 31
-2.340434912184719e-05
  0
LINE
  8
0
 10
299.0
 20
204.28599548339844
 30
-2.2573873138753697e-05
 11
310.0
 21
204.28599548339844
 31
-2.340434912184719e-05
  0
LINE
  8
0
 10
310.0
 20
188.5709991455078
 30
-2.340434912184719e-05
 11
310.0
 21
172.85699462890625
 31
-2.340434912184719e-05
  0
LINE
  8
0
 10
299.0
 20
172.85699462890625
 30
-2.2573873138753697e-05
 11
310.0
 21
172.85699462890625
 31
-2.340434912184719e-05
  0
LINE
  8
0
 10
310.0
 20
157.14300537109375
 30
-2.340434912184719e-05
 11
310.0
 21
141.4290008544922
 31
-2.340434912184719e-05
  0
LINE
  8
0
 10
299.0
 20
141.4290008544922
 30
-2.2573873138753697e-05
 11
310.0
 21
141.4290008544922
 31
-2.340434912184719e-05
  0
LINE
  8
0
 10
310.0
 20
125.71399688720703
 30
-2.340434912184719e-05
 11
310.0
 21
110.0
 31
-2.340434912184719e-05
  0
LINE
  8
0
 10
299.0
 20
110.0
 30
-2.2573873138753697e-05
 11
310.0
 21
110.0
 31
-2.340434912184719e-05
  0
LINE
  8
0
 10
310.0
 20
94.28569793701172
 30
-2.340434912184719e-05
 11
310.0
 21
78.57140350341797
 31
-2.340434912184719e-05
  0
LINE
  8
0
 10
299.0
 20
78.57140350341797
 30
-2.2573873138753697e-05
 11
310.0
 21
78.57140350341797
 31
-2.340434912184719e-05
  0
LINE
  8
0
 10
310.0
 20
62.85710144042969
 30
-2.340434912184719e-05
 11
310.0
 21
47.14289855957031
 31
-2.340434912184719e-05
  0
LINE
  8
0
 10
299.0
 20
47.14289855957031
 30
-2.2573873138753697e-05
 11
310.0
 21
47.14289855957031
 31
-2.340434912184719e-05
  0
LINE
  8
0
 10
310.0
 20
31.428600311279297
 30
-2.340434912184719e-05
 11
310.0
 21
15.714300155639648
 31
-2.340434912184719e-05
  0
LINE
  8
0
 10
299.0
 20
15.714300155639648
 30
-2.2573873138753697e-05
 11
310.0
 21
15.714300155639648
 31
-2.340434912184719e-05
  0
ENDSEC
  0
EOF
